<svg version="1.1" xmlns="http://www.w3.org/2000/svg" width="980" height="960">
    <path
        d="M0 0 C1.04220703 0.49725586 2.08441406 0.99451172 3.15820312 1.50683594 C35.61853703 17.05053057 65.99790993 36.39893225 94 59 C94.97710938 59.78246094 95.95421875 60.56492187 96.9609375 61.37109375 C102.25743481 65.65131637 107.39190364 70.06930596 112.41796875 74.6640625 C113.78577001 75.90149843 115.15886857 77.13404304 116.56860352 78.32348633 C123.26598227 84.01217505 129.41035414 90.25969245 135.60913086 96.47875977 C137.5579687 98.43295624 139.51209272 100.38175147 141.46679688 102.33007812 C147.52187293 108.38157944 153.50680815 114.42544824 159 121 C159.91183231 122.05679109 160.82456087 123.11280969 161.73828125 124.16796875 C216.57474092 188.49055346 253.53497575 266.39510575 278.23828125 426.0859375 C278.2480751 427.28974564 278.25786896 428.49355377 278.26795959 429.73384094 C278.44826189 457.67598364 278.08068978 485.30008762 274 513 C273.84371124 514.06628632 273.84371124 514.06628632 273.68426514 515.15411377 C260.79658817 601.81587701 224.63221836 683.7638867 165 757 C164.17371094 758.0003125 163.34742188 759.000625 162.49609375 760.03125 C152.17242648 772.46046477 141.02382368 784.05710465 129.625 795.5 C128.79299072 796.33668213 127.96098145 797.17336426 127.10375977 798.03540039 C122.22972914 802.89674966 117.23480302 807.53129926 112 812 C110.87036142 812.98483771 109.7414271 813.97048395 108.61328125 814.95703125 C67.07171241 850.99825772 18.82560889 879.89330969 -32.3125 900 C-33.35611191 900.41051102 -33.35611191 900.41051102 -34.42080688 900.82931519 C-59.96772391 910.83494828 -83.58293203 916.48039097 -110 906 C-126.72279915 898.42741171 -139.65033643 884.20110871 -146.30966949 867.14588451 C-149.54070102 857.1022598 -150.43669823 847.22297981 -150.38476562 836.73706055 C-150.3888851 835.37342885 -150.39435399 834.00980069 -150.40104675 832.6461792 C-150.41265542 829.73965056 -150.41529831 826.83331119 -150.41069031 823.92676353 C-150.40379708 819.31279967 -150.41989062 814.69907817 -150.43908691 810.0851593 C-150.47672381 800.28595237 -150.48970249 790.48676809 -150.5 780.6875 C-150.5111209 770.11285805 -150.52677023 759.53833085 -150.57071257 748.9637664 C-150.58591681 745.13649617 -150.59504265 741.30942301 -150.58930969 737.48212242 C-149.46877904 704.11099768 -149.46877904 704.11099768 -163.67578125 675.17578125 C-168.65847893 670.51130628 -173.83182001 666.07330427 -179.0390625 661.66259766 C-181.48128737 659.59193638 -183.90989726 657.50572798 -186.33813477 655.41870117 C-188.05550507 653.94350853 -189.77545434 652.47137763 -191.49609375 651 C-193.95053582 648.90035847 -196.400407 646.79552048 -198.84765625 644.6875 C-199.79596313 643.87164429 -199.79596313 643.87164429 -200.76342773 643.03930664 C-201.97080937 642.00040422 -203.17740131 640.96058305 -204.38305664 639.91967773 C-207.18633955 637.50983804 -210.00553336 635.16916242 -213 633 C-216.006818 634.33999498 -217.99762609 635.79845291 -220.25 638.1875 C-223.27296345 641.29993806 -226.42331301 644.15942477 -229.70703125 646.9921875 C-232.46905971 649.4107269 -235.1739428 651.88895021 -237.875 654.375 C-241.65266762 657.84909974 -245.43807447 661.31340252 -249.25 664.75 C-250.05308594 665.47574219 -250.85617187 666.20148437 -251.68359375 666.94921875 C-253.17437214 668.26904784 -254.68623307 669.56562972 -256.22265625 670.83203125 C-266.56581123 679.39655023 -270.96846575 691.57390992 -272.7890377 704.69861317 C-273.26515084 709.89252941 -273.10981352 715.12168755 -273.08178711 720.33227539 C-273.07822618 721.68003222 -273.07514151 723.02779038 -273.07249451 724.37554932 C-273.06596605 727.26852564 -273.05642073 730.16147054 -273.04459953 733.05443001 C-273.0262119 737.64170266 -273.01668156 742.22896793 -273.00868225 746.81626892 C-272.98460613 759.85793369 -272.94882261 772.8995525 -272.90405273 785.94116211 C-272.8793793 793.15139297 -272.86209234 800.36160564 -272.85249335 807.57187265 C-272.84600573 812.11829959 -272.83056364 816.664575 -272.80817592 821.21095002 C-272.79631581 824.05888602 -272.79307103 826.90678692 -272.79207802 829.75474548 C-272.78895995 831.67477192 -272.77585157 833.59477433 -272.76226807 835.51475525 C-272.78547739 856.49114036 -277.95181998 876.18088068 -292.64453125 891.83984375 C-307.67982535 905.62843021 -326.66151443 912.51923514 -347.00390625 912.1328125 C-404.36792222 909.58994869 -470.73849698 864.68313512 -514 830 C-514.68626465 829.45504883 -515.3725293 828.91009766 -516.07958984 828.34863281 C-523.73161581 822.26720236 -531.21866117 816.07604897 -538.375 809.4140625 C-539.77546064 808.12613888 -541.18261641 806.84434268 -542.63061523 805.61010742 C-548.83847547 800.31705554 -554.57333195 794.57822674 -560.32739258 788.80297852 C-562.058947 787.066064 -563.79578359 785.33456111 -565.53320312 783.60351562 C-571.2350785 777.9053677 -576.80601599 772.17192706 -582 766 C-582.87665548 764.99006115 -583.75421029 763.98090199 -584.6328125 762.97265625 C-592.10824911 754.24350222 -599.13010092 745.21168073 -606 736 C-606.54446777 735.27119629 -607.08893555 734.54239258 -607.64990234 733.79150391 C-657.50887777 666.74488762 -687.15451859 588.30906401 -699 506 C-699.18079102 504.77410156 -699.36158203 503.54820312 -699.54785156 502.28515625 C-705.05502531 463.00138012 -704.78406543 419.2202939 -699 380 C-698.85081116 378.96335205 -698.85081116 378.96335205 -698.6986084 377.90576172 C-688.00042598 303.64924465 -662.31946558 233.44856516 -620.75 170.875 C-620.37967651 170.31690643 -620.00935303 169.75881287 -619.62780762 169.18380737 C-614.34359848 161.24500458 -608.79550679 153.5714366 -603 146 C-602.48969238 145.3311377 -601.97938477 144.66227539 -601.45361328 143.97314453 C-596.48104987 137.49609029 -591.36252373 131.14902624 -586.0625 124.9375 C-585.63348389 124.43299316 -585.20446777 123.92848633 -584.76245117 123.40869141 C-575.66826082 112.85818279 -566.00980449 102.82310529 -556.16333008 92.97802734 C-554.42955057 91.24204044 -552.70398462 89.4981489 -550.97851562 87.75390625 C-545.01394696 81.76009639 -538.98111143 76.11280089 -532.33666992 70.86914062 C-530.09514912 69.07611134 -527.97960704 67.20065114 -525.875 65.25 C-497.02265175 39.37529623 -462.4164241 19.38383642 -428 2 C-427.13681152 1.56300781 -426.27362305 1.12601563 -425.38427734 0.67578125 C-338.90726096 -42.73805204 -236.85332732 -57.00456985 0 0 Z M-470 84 C-471.03898438 84.75539063 -472.07796875 85.51078125 -473.1484375 86.2890625 C-484.37877715 94.56880353 -495.33164657 103.34670411 -505.59375 112.8046875 C-506.93684241 114.03004129 -508.28839608 115.24681712 -509.66967773 116.42895508 C-515.23677125 121.1990305 -520.4484787 126.29526679 -525.6184082 131.48803711 C-527.06025221 132.93524385 -528.50737116 134.37702026 -529.95507812 135.81835938 C-535.18236558 141.04150641 -540.22383416 146.36051293 -545 152 C-545.91253031 153.05618843 -546.82527826 154.11218888 -547.73828125 155.16796875 C-554.07178939 162.59710653 -560.16165536 170.17440082 -566 178 C-566.49226074 178.65564941 -566.98452148 179.31129883 -567.49169922 179.98681641 C-579.56722393 196.13392658 -590.24299557 213.17639952 -599.85791016 230.89648438 C-600.65192942 232.35891916 -601.45149713 233.81834953 -602.25537109 235.27539062 C-647.63161395 317.72877824 -662.80934142 415.12372712 -636.87841797 565.44775391 C-630.76350921 586.33297366 -623.36795598 606.55504874 -614.24023438 626.30957031 C-613.13547212 628.7061215 -612.05511508 631.11155746 -610.984375 633.5234375 C-593.45378431 672.52602972 -567.85373197 708.09358463 -539.16015625 739.62109375 C-537.73931735 741.18581506 -536.33004897 742.76113529 -534.93359375 744.34765625 C-526.6225136 753.76075808 -517.81935009 763.00533223 -508.21875 771.12109375 C-506.38395677 772.67485351 -504.57941703 774.25209233 -502.78125 775.84765625 C-478.19484752 797.57871418 -451.03399832 816.27779961 -422.15576172 831.83398438 C-420.08650994 832.95320821 -418.02896494 834.09158938 -415.97265625 835.234375 C-378.69470654 857.09673579 -378.69470654 857.09673579 -337.78125 862.50390625 C-332.4891716 860.70256418 -327.92059369 858.06020533 -324.87141418 853.20175171 C-321.60288998 846.51734034 -321.46323337 840.51361234 -321.57421875 833.1640625 C-321.57750687 831.93126556 -321.58079498 830.69846863 -321.58418274 829.42831421 C-321.599853 825.4935133 -321.64372335 821.55957732 -321.6875 817.625 C-321.69900936 815.05209054 -321.70878918 812.47917274 -321.71679688 809.90625 C-321.79724519 793.25622253 -322.27507077 776.63375654 -323 760 C-323.89769356 760.09192879 -323.89769356 760.09192879 -324.81352234 760.18571472 C-330.04727923 760.72087894 -335.28186085 761.24565715 -340.51806641 761.75634766 C-342.49567139 761.95048987 -344.47257624 762.15176041 -346.44921875 762.35546875 C-383.34375743 765.75429808 -422.54605709 761.4572658 -452.3125 737.75 C-460.5037049 730.13761686 -465.67705948 720.20688079 -470.07470703 710.08984375 C-478.23400717 691.66145083 -486.76767794 674.3285315 -500 659 C-500.763125 657.96875 -501.52625 656.9375 -502.3125 655.875 C-507.96524169 649.82788098 -515.05732357 645.23971053 -521.9375 640.6875 C-522.65421875 640.213125 -523.3709375 639.73875 -524.109375 639.25 C-525.04523438 638.63125 -525.04523438 638.63125 -526 638 C-530.88805908 634.70340202 -534.40557569 630.28691965 -537 625 C-537.28125 622.32421875 -537.28125 622.32421875 -537 620 C-531.8778539 615.05447963 -525.4095324 615.63743763 -518.73901367 615.6171875 C-497.86042719 615.99158636 -477.7170208 627.81178408 -462.8125 641.75 C-456.39562907 648.45854688 -451.55022491 656.52069325 -446.62255859 664.34692383 C-432.80263669 686.23698281 -414.46076066 701.53790139 -388.87890625 707.44140625 C-384.59134177 708.27332175 -380.35945602 708.76710752 -376 709 C-375.32066406 709.04125 -374.64132812 709.0825 -373.94140625 709.125 C-362.35589037 709.47541258 -351.14182646 707.27008648 -340.0625 704.125 C-339.19915039 703.88056152 -338.33580078 703.63612305 -337.44628906 703.38427734 C-334.94326532 702.64262283 -332.47262177 701.83704691 -330 701 C-329.15840332 700.73848145 -328.31680664 700.47696289 -327.44970703 700.20751953 C-322.98917806 698.66123206 -322.98917806 698.66123206 -320.00219727 695.22021484 C-319.38033384 693.01687711 -319.03382963 690.89634956 -318.75 688.625 C-318.46654706 686.99747904 -318.17609409 685.37116281 -317.87890625 683.74609375 C-317.73855957 682.94155762 -317.59821289 682.13702148 -317.45361328 681.30810547 C-314.53061881 666.43512931 -306.65935608 653.40223989 -297 642 C-295.99486914 640.67053028 -294.99408584 639.33774852 -294 638 C-294.87922119 637.87471924 -295.75844238 637.74943848 -296.66430664 637.62036133 C-354.65450061 629.28637334 -415.81362734 614.36021796 -453.33935547 565.24707031 C-488.55002315 517.52455373 -500.96037902 450.49925214 -492.359375 392.25048828 C-487.31832209 360.68226429 -475.10657369 332.19224563 -454.49047852 307.65258789 C-451.89611197 304.49400224 -450.13686803 302.14514598 -450 298 C-450.64545898 295.03073449 -450.64545898 295.03073449 -451.75 291.875 C-461.46189225 259.13108549 -460.76823611 214.98641747 -445 184 C-419.41285402 175.47095134 -386.76271769 193.64246819 -364.86035156 204.56591797 C-363.91643555 205.03916504 -362.97251953 205.51241211 -362 206 C-361.19788086 206.39977051 -360.39576172 206.79954102 -359.56933594 207.21142578 C-347.91530339 213.0591144 -336.89455002 219.86217981 -325.88500977 226.8359375 C-323.07296468 228.69840312 -323.07296468 228.69840312 -319.82714844 228.6262207 C-318.9302832 228.39507568 -318.03341797 228.16393066 -317.109375 227.92578125 C-316.10132813 227.67223877 -315.09328125 227.41869629 -314.0546875 227.1574707 C-312.96414063 226.87863037 -311.87359375 226.59979004 -310.75 226.3125 C-290.67382224 221.35518866 -270.57591451 218.06774404 -250 216 C-248.61554688 215.85425537 -248.61554688 215.85425537 -247.203125 215.70556641 C-235.87364027 214.66353817 -224.49247253 214.75620754 -213.125 214.75 C-212.01395905 214.74932526 -210.90291809 214.74865051 -209.75820923 214.74795532 C-176.84771213 214.77962137 -144.44681774 218.1521724 -112.51708984 226.47607422 C-106.37856748 228.05426072 -101.78481057 229.22488068 -96.0390625 225.91015625 C-94.55998071 224.97302425 -93.08898171 224.0230503 -91.625 223.0625 C-90.01702346 222.04466235 -88.40762041 221.02907517 -86.796875 220.015625 C-85.99185547 219.50580078 -85.18683594 218.99597656 -84.35742188 218.47070312 C-73.32012975 211.5849691 -61.72985262 205.60569578 -50 200 C-49.22640137 199.62842773 -48.45280273 199.25685547 -47.65576172 198.87402344 C-29.09810154 190.0313856 -10.19059583 182.51371463 10.625 182.875 C11.62917969 182.88402344 12.63335938 182.89304688 13.66796875 182.90234375 C16.11224126 182.92562254 18.55598408 182.95831513 21 183 C21.20713623 184.10226929 21.20713623 184.10226929 21.41845703 185.22680664 C21.93116233 187.67173505 22.556647 189.99026508 23.3046875 192.37109375 C23.55702148 193.18545898 23.80935547 193.99982422 24.06933594 194.83886719 C24.46813965 196.12519043 24.46813965 196.12519043 24.875 197.4375 C27.34162208 205.5588752 29.5369231 213.62848711 31 222 C31.20496094 223.155 31.40992188 224.31 31.62109375 225.5 C35.11055048 248.60261005 34.12515917 272.92751451 26.671875 295.15234375 C25.90662517 298.39575726 25.83936378 299.8792852 27 303 C28.71323983 305.2833502 30.44744448 307.41187601 32.3125 309.5625 C55.62420977 337.65402474 69.0272324 374.5423621 70 411 C70.02046387 411.69577148 70.04092773 412.39154297 70.06201172 413.10839844 C71.45092494 467.67776582 61.7113834 527.39335795 25 570 C24.19046875 570.94359375 23.3809375 571.8871875 22.546875 572.859375 C-16.02159858 616.84839913 -75.1964429 631.24201527 -131 638 C-130.154375 638.969375 -129.30875 639.93875 -128.4375 640.9375 C-127.28973538 642.29003014 -126.14402495 643.64430523 -125 645 C-124.15308594 645.97839844 -124.15308594 645.97839844 -123.2890625 646.9765625 C-103.69419183 670.65000353 -102.54662299 701.41384046 -102.55975223 730.66445422 C-102.55778819 734.51146566 -102.53736674 738.35837794 -102.51856995 742.20533752 C-102.47790702 751.12296109 -102.45905561 760.04056443 -102.44239807 768.95825958 C-102.4199234 780.33418833 -102.38631152 791.71006033 -102.33519894 803.08589703 C-102.31540924 807.64511142 -102.30570641 812.2041977 -102.30424678 816.76345336 C-102.30147966 819.60357166 -102.29061469 822.44361989 -102.27773666 825.28370857 C-102.27148008 827.20914846 -102.27503277 829.13461258 -102.27897644 831.06005859 C-102.20079041 845.11999833 -102.20079041 845.11999833 -95.89453125 857.3046875 C-91.3803404 861.34419024 -85.67945873 863.14753184 -79.6875 863.5 C-49.08842984 861.70934873 -13.70889548 839.23916612 12 824 C12.81436523 823.52175781 13.62873047 823.04351563 14.46777344 822.55078125 C25.72273022 815.9231201 36.45671594 808.70461215 47 801 C48.02504639 800.25532471 48.02504639 800.25532471 49.07080078 799.49560547 C58.77177702 792.42758696 68.01828891 784.96028397 77 777 C77.88171875 776.21882812 78.7634375 775.43765625 79.671875 774.6328125 C82.12728025 772.4354594 84.56549944 770.22047853 87 768 C87.95519531 767.13761719 88.91039062 766.27523437 89.89453125 765.38671875 C98.77487885 757.34495119 107.49119649 749.1323643 115.2734375 740.00390625 C117.21741046 737.74766614 119.23323518 735.56636107 121.25 733.375 C126.8337545 727.17082834 131.9297147 720.62238181 137 714 C137.58620117 713.2383252 138.17240234 712.47665039 138.77636719 711.69189453 C153.13901121 692.98749139 165.32753033 673.4812434 177 653 C177.3928418 652.3179248 177.78568359 651.63584961 178.19042969 650.93310547 C190.7800626 628.96449723 200.05966581 604.9691836 208 581 C208.32693848 580.01902344 208.65387695 579.03804687 208.99072266 578.02734375 C219.83926727 545.07949231 226.47129093 510.58426054 229 476 C229.16628906 474.03546875 229.16628906 474.03546875 229.3359375 472.03125 C236.58053764 374.13124804 208.59121924 271.50411156 144 181 C143.54399414 180.39381836 143.08798828 179.78763672 142.61816406 179.16308594 C134.93133458 168.95728074 126.95891855 159.01444922 118.3359375 149.58203125 C117.06521031 148.17743147 115.80075329 146.76657532 114.57104492 145.32592773 C109.67292839 139.60301975 104.41862217 134.26590111 99.0847168 128.9543457 C97.56508332 127.4400742 96.05087483 125.9205257 94.53710938 124.40039062 C89.19749753 119.05679782 83.76782813 113.88382035 78 109 C76.97850664 108.11143528 75.95763395 107.22215634 74.9375 106.33203125 C66.57326563 99.15792065 57.90315131 92.49026523 49 86 C47.99477295 85.26330078 47.99477295 85.26330078 46.96923828 84.51171875 C-27.46954926 30.16584737 -118.68303208 0.81207944 -210.75 0.75 C-212.11578186 0.74898788 -212.11578186 0.74898788 -213.50915527 0.74795532 C-304.8149335 0.85419872 -396.29462211 29.77304172 -470 84 Z M-409 237 C-410.77989812 256.21808917 -408.86484103 273.29630364 -401.4453125 291.25390625 C-400.75405273 292.93226563 -400.75405273 292.93226563 -400.04882812 294.64453125 C-399.10997857 296.89828533 -398.15328757 299.14470126 -397.17773438 301.3828125 C-396.74009766 302.42308594 -396.30246094 303.46335937 -395.8515625 304.53515625 C-395.44760254 305.467229 -395.04364258 306.39930176 -394.62744141 307.35961914 C-393.84379188 310.6573505 -394.40658061 312.05605103 -396 315 C-398.13671875 317.39453125 -398.13671875 317.39453125 -400.6875 319.8125 C-405.04023707 324.04069524 -409.0876583 328.36652752 -413 333 C-413.7940625 333.91652344 -414.588125 334.83304687 -415.40625 335.77734375 C-428.45930297 351.05177471 -438.22595559 368.41346508 -443 388 C-443.16371094 388.66676758 -443.32742188 389.33353516 -443.49609375 390.02050781 C-450.74832321 421.47180872 -446.40384225 458.3061384 -438 489 C-437.78504883 489.78665039 -437.57009766 490.57330078 -437.34863281 491.38378906 C-432.50929238 508.50593973 -424.42735096 524.33597892 -413 538 C-412.31679688 538.845625 -411.63359375 539.69125 -410.9296875 540.5625 C-380.36825486 576.64980054 -328.56811085 586.17910445 -284.07299805 591.0222168 C-282.23483425 591.22287876 -280.39669999 591.42381148 -278.55859375 591.625 C-277.62162155 591.72726395 -276.68464935 591.82952789 -275.71928406 591.93489075 C-269.85123926 592.6008244 -264.05067223 593.46532731 -258.2333374 594.48040771 C-226.7539178 599.91321934 -197.77127899 598.4774721 -166.25 594.6875 C-165.29698376 594.57329082 -164.34396751 594.45908165 -163.36207199 594.34141159 C-88.91434144 585.85376413 -88.91434144 585.85376413 -24 551 C-23.47873535 550.57517334 -22.9574707 550.15034668 -22.42041016 549.71264648 C6.36270932 526.13574155 17.3545417 486.47384119 21 451 C23.39061325 424.226339 23.12134972 398.44664831 14 373 C13.46439453 371.46666016 13.46439453 371.46666016 12.91796875 369.90234375 C6.49064538 353.02778097 -4.92734931 339.3816823 -17.28515625 326.5234375 C-18.01460449 325.761521 -18.74405273 324.99960449 -19.49560547 324.21459961 C-20.9308477 322.72356549 -22.37617708 321.24216032 -23.83251953 319.77172852 C-24.48978027 319.09295654 -25.14704102 318.41418457 -25.82421875 317.71484375 C-26.41291748 317.11792725 -27.00161621 316.52101074 -27.6081543 315.90600586 C-29.37435885 313.48734967 -29.83174388 311.998242 -30 309 C-29.05957031 305.91650391 -29.05957031 305.91650391 -27.578125 302.4765625 C-27.31747253 301.85333099 -27.05682007 301.23009949 -26.78826904 300.58798218 C-25.68122449 297.94157103 -24.54480265 295.30814187 -23.40820312 292.67431641 C-17.31116157 278.45386361 -14.47519511 265.15636459 -14.8125 249.5625 C-14.83280273 247.73235352 -14.83280273 247.73235352 -14.85351562 245.86523438 C-14.88828713 242.90965623 -14.93720791 239.95509214 -15 237 C-37.58621162 246.3098463 -59.83629115 257.7963336 -79.55078125 272.30078125 C-80.61921265 273.07796509 -80.61921265 273.07796509 -81.70922852 273.87084961 C-83.01996573 274.83692832 -84.31523351 275.8245613 -85.58959961 276.83813477 C-88.94069269 279.3192103 -90.58724594 279.99376504 -94.87890625 280.05859375 C-101.5947966 278.87737125 -108.21003626 277.02637013 -114.8057251 275.30621338 C-183.22229749 257.53364863 -252.0463888 258.31296561 -319.97412109 278.17138672 C-320.81281738 278.41131348 -321.65151367 278.65124023 -322.515625 278.8984375 C-323.60278809 279.21820557 -323.60278809 279.21820557 -324.71191406 279.54443359 C-328.7101594 280.34049909 -331.79238679 280.60133343 -335.50341797 278.75341797 C-336.32471191 278.17221191 -337.14600586 277.59100586 -337.9921875 276.9921875 C-338.93167236 276.3422583 -339.87115723 275.6923291 -340.83911133 275.02270508 C-341.84095459 274.3139624 -342.84279785 273.60521973 -343.875 272.875 C-346.03944613 271.39198105 -348.20751428 269.91423656 -350.37890625 268.44140625 C-350.93114365 268.06640488 -351.48338104 267.6914035 -352.05235291 267.30503845 C-378.74158422 247.91831228 -378.74158422 247.91831228 -409 237 Z "
        fill="#ffffff" transform="translate(702,48)" />
</svg>