<svg version="1.1" xmlns="http://www.w3.org/2000/svg" width="981" height="982">
    <path
        d="M0 0 C2.79643206 0.00125129 5.59286414 0.00244436 8.38929623 0.00361747 C44.011687 0.01858212 79.63407407 0.03811257 115.25645179 0.07258195 C116.61486772 0.07389047 116.61486772 0.07389047 118.00072639 0.07522542 C122.52727944 0.07958603 127.05383247 0.08396295 131.58038551 0.08834034 C132.91005945 0.08962569 132.91005945 0.08962569 134.2665955 0.090937 C136.04842028 0.0926646 137.83024506 0.09440078 139.61206983 0.09614564 C164.51686733 0.12049332 189.42158541 0.12823734 214.32639052 0.11491483 C235.35455359 0.10370992 256.38255534 0.11344009 277.41067904 0.15792435 C288.77978367 0.18140512 300.148527 0.186632 311.51763684 0.16457379 C319.04926436 0.15193018 326.58057082 0.16465719 334.11213285 0.19839406 C338.30795018 0.21656133 342.50299702 0.22483815 346.69880408 0.20097512 C365.68209707 0.10117588 382.65808736 1.79083776 400.72457618 8.12624711 C402.49296331 8.71908953 404.26183218 9.31049732 406.03123206 9.90031022 C431.21235105 18.33608024 454.04565573 32.39266407 473.72457618 50.12624711 C474.5624668 50.84425492 475.40035743 51.56226273 476.26363868 52.30202836 C481.2266091 56.57615841 485.52053741 61.11537261 489.72457618 66.12624711 C490.55859961 67.07241898 491.39262305 68.01859086 492.25191993 68.99343461 C499.18690983 76.90221114 505.21317148 85.16885134 510.72457618 94.12624711 C511.13562598 94.79188676 511.54667578 95.4575264 511.97018164 96.14333695 C530.12996768 126.01728406 540.00652881 159.29979925 539.74044532 194.1396901 C539.74969247 196.83008371 539.76209523 199.52030035 539.77826327 202.21064484 C539.80680796 207.9998772 539.8065006 213.7885101 539.78588599 219.57776803 C539.75531432 228.18717103 539.77125483 236.79607893 539.79555245 245.40547982 C539.83744696 260.79161653 539.83412057 276.17748576 539.81092115 291.56364726 C539.79072082 305.02842499 539.78557823 318.49310519 539.7951023 331.95789498 C539.79571338 332.85434979 539.79632446 333.7508046 539.79695406 334.67442471 C539.79944515 338.3142846 539.80199239 341.95414443 539.80463217 345.59400421 C539.82905126 379.6714263 539.80700041 413.74867897 539.76385699 447.82607488 C539.72589469 478.04072497 539.72929796 508.25510523 539.76754493 538.46975297 C539.81046638 572.49012906 539.82732205 606.51035575 539.80264682 640.53075516 C539.80008143 644.16330841 539.79757869 647.79586169 539.7951023 651.428415 C539.79446968 652.32270961 539.79383706 653.21700422 539.79318527 654.13839866 C539.78412054 667.58885781 539.79466182 681.03920827 539.81493872 694.48965234 C539.83790087 709.7967583 539.83190791 725.10355723 539.78869277 740.41062535 C539.76535509 748.95676493 539.76344436 757.50223817 539.79386217 766.04835922 C539.81199609 771.77973552 539.80029303 777.51058531 539.76582402 783.24188447 C539.74706013 786.4923083 539.74427105 789.7411919 539.76907188 792.99161161 C539.89959783 811.54036543 536.66519028 827.56875127 530.72457618 845.12624711 C530.44026523 845.97365313 530.15595429 846.82105915 529.86302787 847.69414414 C513.03579144 897.34361896 476.86435547 939.08836257 430.05660743 962.61452836 C424.17794559 965.45124063 418.17506714 967.9320266 412.09957618 970.31374711 C410.66521216 970.88319047 410.66521216 970.88319047 409.2018711 971.46413773 C405.7379566 972.7762478 402.23907985 973.95899017 398.72457618 975.12624711 C397.89831402 975.40514912 397.07205187 975.68405114 396.22075147 975.97140473 C379.30629236 981.55999691 363.91462909 983.13657378 346.18110389 983.02859086 C343.49290458 983.03811286 340.8048422 983.05038867 338.11668372 983.06595773 C332.31976701 983.09403949 326.52329399 983.0967414 320.72633475 983.0818097 C312.10516566 983.05966407 303.48439507 983.07797745 294.86325242 983.10360049 C279.45578318 983.1480122 264.04850081 983.15247912 248.64098466 983.13913117 C235.15263506 983.12746409 221.66435822 983.12808273 208.17600936 983.14083451 C206.36094961 983.14250277 204.54588987 983.14416951 202.73083012 983.14583474 C199.99508112 983.1483633 197.25933213 983.15090429 194.52358317 983.15348012 C169.11523245 983.17713849 143.70690585 983.18703731 118.29854983 983.16747636 C116.86429858 983.16637364 116.86429858 983.16637364 115.40107256 983.16524865 C107.63825245 983.159194 99.87543266 983.15274707 92.11261289 983.14627358 C61.8515678 983.1213374 31.59081018 983.1384458 1.32980078 983.18972367 C-32.73746111 983.24734982 -66.80455166 983.27500475 -100.8718636 983.25773591 C-104.51129125 983.25598331 -108.15071893 983.25432167 -111.79014665 983.25271195 C-112.68614072 983.25229326 -113.58213478 983.25187456 -114.50528019 983.25144318 C-127.97306718 983.2457236 -141.44069841 983.26288419 -154.90845186 983.29177445 C-170.24373309 983.3246047 -185.5786441 983.32522039 -200.91391356 983.28435189 C-208.72568052 983.26436243 -216.53680492 983.25821954 -224.34853631 983.29330415 C-284.7615265 983.54970243 -284.7615265 983.54970243 -310.27542382 973.12624711 C-312.34455383 972.3247033 -314.41385237 971.52359436 -316.48333341 970.72295731 C-321.52659529 968.74316393 -326.4106545 966.50758815 -331.27542382 964.12624711 C-332.3964248 963.58532426 -332.3964248 963.58532426 -333.54007226 963.03347367 C-378.53358283 941.07916536 -415.61167962 900.56855568 -432.40823632 853.24734086 C-434.09886761 848.31806277 -435.77160513 843.38454458 -437.27363735 838.39416885 C-437.91235983 836.31059601 -438.58860838 834.2379061 -439.31320006 832.18261802 C-443.35734708 819.50277345 -442.84487161 806.72044322 -442.8102749 793.53062028 C-442.81775512 790.82349067 -442.82680284 788.11640679 -442.83773619 785.40929306 C-442.8582546 779.54015386 -442.8640381 773.67114648 -442.85991174 767.80197495 C-442.85379021 759.07340045 -442.87050732 750.34497089 -442.89141024 741.61642465 C-442.93002603 725.11460093 -442.94134438 708.61282704 -442.94363847 692.11096344 C-442.94547951 679.35983591 -442.95372774 666.6087278 -442.96644098 653.85760659 C-442.97003141 650.18173927 -442.97359067 646.50587193 -442.97714049 642.83000457 C-442.97802468 641.91605241 -442.97890887 641.00210025 -442.97981986 640.06045257 C-443.00442637 614.36276269 -443.02022322 588.66507955 -443.01844674 562.96737736 C-443.01838443 561.99915167 -443.01832211 561.03092598 -443.01825791 560.03336011 C-443.0179255 555.12647603 -443.01752934 550.21959195 -443.01711908 545.31270788 C-443.0170393 544.3382622 -443.01695952 543.36381652 -443.01687732 542.35984219 C-443.01671557 540.38927446 -443.01654838 538.41870673 -443.01637575 536.448139 C-443.01392662 505.81285228 -443.04392057 475.17774287 -443.09866601 444.54250687 C-443.16021462 410.0864367 -443.19452441 375.63048302 -443.19081312 341.17435443 C-443.19051463 337.49440048 -443.19031979 333.81444654 -443.19019586 330.13449258 C-443.19014924 329.22846491 -443.19010262 328.32243724 -443.19005459 327.38895419 C-443.1899319 312.85730047 -443.21539144 298.32580162 -443.24992492 283.79419383 C-443.28396514 269.166682 -443.28768666 254.53939478 -443.26148763 239.91186509 C-443.24679222 231.2413523 -443.25377072 222.57152541 -443.29325699 213.90108644 C-443.31748141 208.08635762 -443.31183034 202.27211873 -443.283375 196.45741122 C-443.26803179 193.15886201 -443.2687722 189.86268206 -443.29720441 186.56406931 C-443.70572595 135.75099337 -417.94045046 89.7786441 -383.27542382 54.12624711 C-369.70777292 40.49007272 -353.34092826 29.82037525 -336.27542382 21.12624711 C-335.6634414 20.80607621 -335.05145898 20.48590531 -334.42093164 20.15603226 C-306.00256185 5.3800544 -276.44596445 1.12167829 -244.91433984 0.81423539 C-243.08156596 0.79371049 -241.24879409 0.77300663 -239.41602403 0.75214356 C-234.34835264 0.69635885 -229.28063706 0.64761008 -224.21287113 0.60128134 C-220.91458162 0.57108121 -217.6163055 0.53962755 -214.31802827 0.50811738 C-142.88125169 -0.16207214 -71.43911658 -0.03240474 0 0 Z M-156.13652593 39.54820317 C-158.9493768 39.56367261 -161.76222959 39.57872103 -164.57508355 39.59361619 C-175.10968332 39.64949467 -185.64423454 39.71014417 -196.17875749 39.77906197 C-199.29372674 39.79939349 -202.40869808 39.81816839 -205.52368623 39.83535546 C-220.78130698 39.92111614 -236.03123495 40.11102299 -251.2825039 40.57180375 C-253.19302435 40.62649528 -253.19302435 40.62649528 -255.14214116 40.68229169 C-264.430879 40.99066277 -273.26210374 41.79298112 -282.27542382 44.12624711 C-283.04821679 44.32347367 -283.82100976 44.52070023 -284.6172207 44.72390336 C-326.37160633 55.67909959 -360.17292547 81.46762189 -382.46292382 118.37624711 C-398.09241504 145.21653288 -403.16928365 173.95597838 -403.58716089 204.71267289 C-403.60762452 206.0283009 -403.62808815 207.34392892 -403.64917189 208.69942445 C-403.70457528 212.34156972 -403.75337466 215.98377393 -403.79989788 219.62604254 C-403.83011377 221.98486848 -403.86157684 224.34367565 -403.89314514 226.70248383 C-404.46648056 270.21124732 -404.42294498 313.72287078 -404.41072423 357.23459274 C-404.40840304 365.72319736 -404.40816888 374.21179997 -404.40923959 382.70040482 C-404.40939282 383.92945129 -404.40954606 385.15849776 -404.40970393 386.42478806 C-404.4100238 388.92505568 -404.41034802 391.42532331 -404.41067652 393.92559093 C-404.41349762 417.12515647 -404.41029808 440.32471799 -404.40487616 463.52428287 C-404.40041124 483.23600733 -404.40118814 502.94772588 -404.40579492 522.65945023 C-404.41120123 545.80155441 -404.41322325 568.9436551 -404.41018265 592.08575982 C-404.40986426 594.57453634 -404.40954988 597.06331287 -404.40923959 599.55208939 C-404.40908531 600.77518937 -404.40893104 601.99828934 -404.40877209 603.25845295 C-404.40792489 611.69239223 -404.40935265 620.12632918 -404.41171914 628.5602681 C-404.43134878 693.02213266 -404.43134878 693.02213266 -403.91934386 757.48148078 C-403.89272345 759.75466481 -403.86905705 762.02786107 -403.8462382 764.30108613 C-403.80962163 793.86323351 -403.80962163 793.86323351 -399.02542382 822.93874711 C-398.69900903 824.23498002 -398.69900903 824.23498002 -398.366 825.55739945 C-391.41107182 852.26688948 -377.46246861 874.64457518 -359.27542382 895.12624711 C-358.6953457 895.7798018 -358.11526757 896.43335648 -357.51761132 897.10671586 C-330.86693124 925.29751062 -290.4034087 941.18597152 -252.09126645 942.32951599 C-250.23213248 942.37001543 -248.37289605 942.40599433 -246.51359826 942.43810433 C-245.49242296 942.4585768 -244.47124765 942.47904927 -243.41912764 942.50014211 C-240.06799396 942.5652844 -236.71679126 942.62354393 -233.36551172 942.68065995 C-232.19787919 942.70163148 -231.03024667 942.72260302 -229.82723135 942.74421005 C-205.31481195 943.18032472 -180.80690318 943.27102609 -156.29120857 943.25697178 C-150.25153231 943.25464804 -144.21185856 943.25823084 -138.17218286 943.2609517 C-127.09565811 943.26508511 -116.01913932 943.26480724 -104.94261429 943.26204023 C-94.69872233 943.25949473 -84.45483239 943.25888163 -74.21094018 943.26006287 C-73.52355622 943.26013926 -72.83617225 943.26021564 -72.12795847 943.26029434 C-69.33557245 943.26060583 -66.54318644 943.26092425 -63.75080043 943.26125411 C-37.71382561 943.26429284 -11.67685427 943.26157219 14.36012001 943.25615721 C37.34195883 943.25141389 60.3237921 943.25183861 83.30563086 943.2566182 C109.30402287 943.26200747 135.30241182 943.26407707 161.30080432 943.26100594 C164.08723372 943.26068536 166.87366313 943.26037251 169.66009253 943.26006287 C170.34586244 943.2599838 171.03163234 943.25990472 171.73818315 943.25982324 C181.9594886 943.25869994 192.18079179 943.25998906 202.40209693 943.26254243 C214.0589929 943.26538364 225.71588217 943.26451308 237.3727774 943.25926168 C243.28944391 943.25668173 249.20609936 943.25551894 255.12276572 943.25891083 C278.28842897 943.27080944 301.45372443 943.1946392 324.61720401 942.85407333 C326.8654652 942.82250054 329.11379119 942.79517127 331.3621617 942.77269311 C358.71946047 942.4854711 384.95852751 939.31331751 409.72457618 927.12624711 C410.6754209 926.6641182 410.6754209 926.6641182 411.64547461 926.19265336 C448.64868804 908.00239444 476.6664718 875.8608479 490.45895118 837.06032914 C497.03329433 817.55187893 498.76823398 797.56574496 499.03631324 777.0771901 C499.05678462 775.70130764 499.07746208 774.32542823 499.09832424 772.94955164 C499.15368611 769.18504366 499.20248453 765.42047884 499.24905023 761.65585266 C499.27924099 759.22374955 499.31070329 756.79166511 499.34229749 754.35957986 C499.90019615 710.78027169 499.87225327 667.19889325 499.85987658 623.616761 C499.85755359 615.21450722 499.85732195 606.81225546 499.85839194 598.41000146 C499.85854517 597.19261614 499.85869841 595.97523082 499.85885628 594.72095503 C499.85917616 592.24428421 499.85950037 589.76761338 499.85982887 587.29094256 C499.86264863 564.32120029 499.85945255 541.35146209 499.85402851 518.38172049 C499.84956314 498.87102356 499.85034112 479.3603326 499.85494727 459.84963578 C499.86035505 436.93420633 499.86237486 414.0187804 499.85933501 391.1033504 C499.85901661 388.63845927 499.85870224 386.17356813 499.85839194 383.70867699 C499.85823767 382.49736415 499.85808339 381.2860513 499.85792444 380.03803201 C499.85707771 371.69070109 499.85850392 363.34337251 499.86087149 354.99604195 C499.87182817 312.11713662 499.88012324 269.23809372 499.36849621 226.36164023 C499.34186084 224.05034042 499.31819709 221.73902863 499.29539055 219.42768818 C498.75476735 166.25313123 488.91784 121.55905742 449.90792578 82.89016312 C410.67951816 45.09058952 362.53872826 40.13634241 310.56494516 39.82294935 C307.66709267 39.80487852 304.76926413 39.78382375 301.87143087 39.76292503 C292.12411891 39.69292104 282.37674969 39.63483261 272.62934893 39.57880276 C270.02733313 39.56369052 267.42532039 39.5481301 264.82330817 39.53241318 C151.41925528 38.84788191 38.00745375 38.807379 -156.13652593 39.54820317 Z "
        fill="#f5f5f5" transform="translate(442.27542382478714,-0.1262471079826355)" />
    <path
        d="M0 0 C1.97850573 -0.0014016 3.95701123 -0.00315556 5.93551636 -0.00523376 C22.95259921 -0.01691975 39.9698932 0.02853514 56.98686218 0.08821106 C66.78729614 0.12157492 76.58646237 0.13907022 86.38679218 0.07651138 C92.04621132 0.04100417 97.70495823 0.04382794 103.36447144 0.06768799 C105.53226011 0.0694184 107.7001222 0.05589276 109.8677063 0.02606201 C127.51194845 -0.20407952 127.51194845 -0.20407952 133.41015625 5.453125 C138.85988419 12.27903262 140.24534282 19.69614834 141.71484375 28.1328125 C145.33763178 28.1328125 146.11527848 27.32628439 149.02734375 25.2578125 C186.56727977 0.72972681 238.65463154 -5.09691266 282.18017578 3.58056641 C312.79060507 10.24987782 341.9956652 22.24084254 365.71484375 43.1328125 C366.58882812 43.89722656 367.4628125 44.66164063 368.36328125 45.44921875 C370.84176736 47.64859606 373.28534772 49.87954934 375.71484375 52.1328125 C376.60236328 52.93912109 376.60236328 52.93912109 377.5078125 53.76171875 C413.39640167 87.77489471 430.98142451 140.92760872 432.71484375 189.1328125 C432.91043923 198.03505361 432.92001642 206.94027147 432.94818175 215.84429467 C432.95794156 218.68697857 432.97121845 221.52964218 432.98445071 224.37231172 C433.03155234 234.52291581 433.06461112 244.67354903 433.09375 254.82421875 C433.09605758 255.62613422 433.09836516 256.42804969 433.10074267 257.25426564 C433.14617879 273.20718097 433.18458575 289.16011092 433.21147251 305.11306858 C433.21746017 308.60410645 433.22354613 312.09514413 433.22973633 315.58618164 C433.2320358 316.88747474 433.2320358 316.88747474 433.23438173 318.21505659 C433.26016216 332.3057487 433.31713392 346.39614446 433.38620163 360.48668373 C433.45666897 374.98305474 433.49690274 389.47927189 433.50822204 403.97581142 C433.51537522 412.10376464 433.53607637 420.23119832 433.59124947 428.35898018 C433.63813362 435.26961655 433.65797272 442.17965464 433.64236797 449.09044445 C433.63526161 452.61398687 433.64107181 456.1362476 433.6819458 459.65958786 C433.72593303 463.48149213 433.70772001 467.30168136 433.68360901 471.12379456 C433.70622962 472.23283459 433.72885023 473.34187462 433.75215632 474.48452193 C433.6599198 480.2241887 433.00438061 483.54444969 429.02113438 487.82087612 C425.697961 490.67517171 423.33691678 492.1328125 418.84542847 492.1328125 C417.74502228 492.15222397 416.64461609 492.17163544 415.51086426 492.19163513 C414.32762573 492.17222366 413.14438721 492.15281219 411.92529297 492.1328125 C410.02537094 492.14919518 410.02537094 492.14919518 408.08706665 492.16590881 C404.62165805 492.1948518 401.15807869 492.17481917 397.6927352 492.1458931 C394.02154919 492.12379609 390.35064005 492.14738319 386.67947388 492.16577148 C379.69116397 492.19391441 372.70353937 492.18146231 365.71524918 492.15434742 C357.14600833 492.12316888 348.57705038 492.14561721 340.0078125 492.16796875 C331.00818673 492.19049291 322.00904616 492.20278634 313.00946045 492.16137695 C310.14791002 492.14887228 307.28635842 492.13672381 304.42480469 492.125 C303.39048758 492.12061826 303.39048758 492.12061826 302.33527517 492.11614799 C293.64648896 492.08392861 284.97740103 492.20057594 276.29394531 492.515625 C273.68223254 492.59153218 271.07044845 492.66418118 268.45862198 492.73605347 C266.20879562 492.81634612 263.96859893 492.9556862 261.72213745 493.09985352 C253.51851768 493.32079933 248.70410233 491.55866092 242.75084543 486.10960454 C237.92350636 481.16447721 237.24462799 476.15709777 237.31877899 469.37193584 C237.37246081 467.90523323 237.4270323 466.43856295 237.48242188 464.97192383 C237.49603963 463.41822399 237.50374209 461.8644623 237.505867 460.31070423 C237.51806287 457.12589159 237.56155452 453.94396968 237.63198853 450.75992203 C237.74773511 445.1780234 237.66497405 439.60669778 237.58141232 434.02423668 C237.52445472 430.03478883 237.49371717 426.04567043 237.47450256 422.0559082 C237.4711531 421.38124681 237.46780363 420.70658541 237.46435267 420.01147974 C237.45755302 418.62331337 237.45085783 417.23514649 237.44426274 415.84697914 C237.42567478 412.11867236 237.40252519 408.39039326 237.37986755 404.66210938 C237.34656406 399.12315572 237.31469644 393.58419705 237.28447312 388.04522574 C237.23028655 378.15098012 237.16473524 368.25684397 237.09425867 358.36270201 C236.68706539 301.0829803 236.68706539 301.0829803 236.70797729 272.69767761 C236.71384857 264.34830796 236.69535012 255.99905699 236.6690197 247.64973164 C236.65088097 241.20124361 236.66660889 234.75405968 236.70896816 228.3057003 C236.72657775 224.37048943 236.71124901 220.43591462 236.68660164 216.50076294 C236.68211137 214.72701005 236.6909608 212.95315491 236.71545219 211.17956543 C236.9329803 194.63499589 231.42127323 181.31525024 219.8828125 169.2109375 C215.23193181 164.77104351 210.95564344 162.54713002 204.71484375 161.1328125 C203.80863281 160.91753906 202.90242188 160.70226562 201.96875 160.48046875 C188.1406353 157.67077214 175.00385503 159.43202474 162.96484375 166.8828125 C153.81623727 173.45939083 146.2251892 183.89908912 144.16149902 195.1493988 C143.51198543 200.18916023 143.36947268 205.2582956 143.18554688 210.33227539 C143.14411812 211.42659661 143.10268936 212.52091784 143.06000519 213.64840031 C142.59964096 226.4095711 142.37921285 239.17390124 142.18359375 251.94140625 C142.15278465 253.86433408 142.15278465 253.86433408 142.12135315 255.82610893 C141.71157745 281.46624547 141.47675038 307.10721578 141.29888439 332.74996281 C141.2393038 341.22220208 141.16694027 349.69426895 141.08663166 358.16633379 C141.03002869 364.15774873 140.97574041 370.1491849 140.921875 376.140625 C140.91018091 377.43900488 140.89848682 378.73738476 140.88643837 380.07510948 C140.74811015 395.89863931 140.71021273 411.71591863 140.83314133 427.5395298 C140.86817907 432.81382016 140.87358351 438.08821715 140.8762722 443.36261272 C140.88228613 448.07235419 140.93908031 452.77761949 141.03749371 457.48628998 C141.09537885 460.97156205 141.07688663 464.45567798 141.0703125 467.94140625 C141.11355148 469.1376059 141.15679047 470.33380554 141.20133972 471.56625366 C141.10434307 478.33712928 139.45078928 482.64997616 134.59228516 487.41503906 C128.40724961 492.7873716 122.70194253 493.47879502 114.56316566 492.95226097 C111.33148131 492.74525361 108.09874701 492.67147794 104.86201382 492.58153629 C102.9964609 492.52767314 101.13109872 492.4668573 99.26596928 492.39991665 C90.85964453 492.1091772 82.4628498 492.10909293 74.05322266 492.17333984 C73.35857021 492.17856415 72.66391777 492.18378846 71.94821525 492.18917108 C69.0669373 492.21110177 66.1856615 492.23326473 63.30439126 492.25618804 C53.52668348 492.33033908 43.7488728 492.3178613 33.97094917 492.31142998 C26.1677849 492.30793282 18.36566909 492.32566975 10.56274414 492.38989258 C3.63911952 492.44680486 -3.2833532 492.46484902 -10.20717365 492.4368189 C-13.83798596 492.42343252 -17.4664538 492.42846162 -21.09696007 492.48103905 C-25.11789473 492.5386451 -29.1338428 492.50944094 -33.1550293 492.47338867 C-34.32748199 492.50358597 -35.49993469 492.53378326 -36.70791626 492.56489563 C-44.04367595 492.40858438 -48.32853182 490.45306391 -53.55778851 485.28112949 C-59.7106174 478.34882231 -58.80091459 469.90947018 -58.66851807 461.14144897 C-58.67977125 459.21205507 -58.69582483 457.28268424 -58.7162416 455.35336554 C-58.75818324 450.07029424 -58.73177918 444.7894654 -58.69380951 439.50644588 C-58.66476322 433.80213393 -58.69917833 428.09815165 -58.72543335 422.39387512 C-58.76661405 411.22729347 -58.74866174 400.0615563 -58.70984426 388.89499591 C-58.67952336 379.82013989 -58.67144435 370.74551364 -58.67925262 361.67061234 C-58.6809148 359.73260513 -58.6809148 359.73260513 -58.68261056 357.75544626 C-58.68498296 355.13071566 -58.68741789 352.50598511 -58.68991467 349.88125463 C-58.71033203 325.97765388 -58.67017507 302.07450132 -58.60351161 278.1710043 C-58.54303269 256.35765095 -58.53355046 234.54485136 -58.56835938 212.73144531 C-58.57722495 207.14422323 -58.5860244 201.5570011 -58.59427261 195.96977806 C-58.59528861 195.28188674 -58.59630461 194.59399542 -58.59735139 193.88525891 C-58.62346272 175.64702688 -58.60765761 157.40884904 -58.57932639 139.17062533 C-58.57531908 136.55621063 -58.57133525 133.9417959 -58.56737518 131.32738113 C-58.56539673 130.04105291 -58.56341827 128.75472469 -58.56137986 127.42941683 C-58.54930401 118.36444654 -58.55737879 109.29962172 -58.57294464 100.2346611 C-58.59120962 89.18899679 -58.57697457 78.14393557 -58.52131382 67.09838723 C-58.49368153 61.46259923 -58.48038868 55.82775754 -58.5060463 50.1919384 C-58.52910435 45.03222642 -58.51057678 39.87439452 -58.45890638 34.7149051 C-58.44746786 32.84903295 -58.45116899 30.98299346 -58.47157148 29.1171978 C-58.62875658 13.45110084 -58.62875658 13.45110084 -53.02538681 7.64922523 C-48.70652904 4.09313022 -44.45365253 0.81649759 -38.73268127 0.62576294 C-37.86619178 0.59091734 -36.99970228 0.55607174 -36.10695553 0.52017021 C-35.18164311 0.49820642 -34.2563307 0.47624264 -33.30297852 0.45361328 C-32.32910218 0.42052629 -31.35522585 0.38743931 -30.35183811 0.35334969 C-20.23604408 0.03758176 -10.11983375 -0.01155584 0 0 Z M-16.28515625 41.1328125 C-16.28515625 176.7628125 -16.28515625 312.3928125 -16.28515625 452.1328125 C21.99484375 452.1328125 60.27484375 452.1328125 99.71484375 452.1328125 C99.77542969 436.52484375 99.83601563 420.916875 99.8984375 404.8359375 C99.9389849 394.88281027 99.97975016 384.92968471 100.02148438 374.9765625 C100.08752647 359.21680584 100.1527392 343.45704893 100.2121582 327.69726562 C100.25546036 316.21326734 100.30184335 304.72928603 100.3517223 293.24531436 C100.37795922 287.18107857 100.40279217 281.11684534 100.42391777 275.05258942 C100.47688287 260.07884187 100.56103599 245.10588752 100.71484375 230.1328125 C100.72824413 228.74958392 100.72824413 228.74958392 100.74191523 227.33841133 C100.79365474 222.21566029 100.86486265 217.09391968 100.96847546 211.97194433 C100.99675301 210.48077748 101.01978587 208.98949876 101.03671348 207.49815989 C101.19765101 194.25399583 104.05432278 183.05492775 109.71484375 171.1328125 C110.2250708 170.02292969 110.2250708 170.02292969 110.74560547 168.890625 C114.67086527 160.490069 119.47153335 153.02357731 125.71484375 146.1328125 C126.4521875 145.30265625 127.18953125 144.4725 127.94921875 143.6171875 C142.88510206 127.70510266 161.61273841 120.63483494 183.30078125 119.9140625 C209.68950378 119.35773701 232.37236093 124.75851701 252.078125 143.33984375 C283.79735085 176.93872742 275.87680294 229.21566688 276.01816678 271.6183219 C276.04033744 277.98434062 276.06757107 284.35033785 276.09422302 290.71633911 C276.138143 301.3650827 276.17904398 312.0138334 276.2175293 322.66259766 C276.25711375 333.61312727 276.29860172 344.56364707 276.3425293 355.51416016 C276.3452788 356.20014593 276.34802831 356.8861317 276.35086113 357.59290493 C276.37480762 363.56339232 276.39889472 369.53387915 276.42299557 375.50436592 C276.52592226 401.04716217 276.6196405 426.58998359 276.71484375 452.1328125 C315.65484375 452.1328125 354.59484375 452.1328125 394.71484375 452.1328125 C394.77508145 405.88086898 394.77508145 405.88086898 394.77734375 359.62890625 C394.77653746 358.55530511 394.77653746 358.55530511 394.77571487 357.46001506 C394.75208593 327.56685005 394.59074407 297.67592043 394.30912399 267.78396988 C394.27764545 264.41510101 394.24759081 261.04622186 394.21780396 257.67733765 C395.1341499 170.96429513 395.1341499 170.96429513 358.71484375 94.1328125 C358.26882813 93.58286621 357.8228125 93.03291992 357.36328125 92.46630859 C333.48900088 63.20595227 300.56209828 45.83721946 263.05078125 41.54296875 C225.91234283 38.18074414 189.06650436 43.70592716 159.71484375 68.1328125 C151.36176455 75.35794994 143.22406548 82.94298156 136.08984375 91.3828125 C129.61228964 98.74432814 129.61228964 98.74432814 123.91796875 99.5078125 C117.2208248 99.77436549 113.09907932 99.11714682 107.71484375 95.1328125 C107.14765625 94.74738281 106.58046875 94.36195313 105.99609375 93.96484375 C103.3290654 92.02118394 101.85599969 90.71502747 101.06835938 87.46630859 C100.66881836 83.69881346 100.50600693 79.95653791 100.43359375 76.171875 C100.41518433 75.4224765 100.3967749 74.673078 100.37780762 73.90097046 C100.3194623 71.51999212 100.26650254 69.13894469 100.21484375 66.7578125 C100.14656985 63.62486993 100.07285551 60.49211979 99.99609375 57.359375 C99.98251831 56.65390533 99.96894287 55.94843567 99.95495605 55.22158813 C99.83694781 50.41616459 99.31742165 45.95343573 98.71484375 41.1328125 C60.76484375 41.1328125 22.81484375 41.1328125 -16.28515625 41.1328125 Z "
        fill="#f5f5f5" transform="translate(409.28515625,352.8671875)" />
    <path
        d="M0 0 C2.26091498 -0.0007194 4.5218242 -0.00286986 6.78273773 -0.00549722 C14.7004865 -0.01468262 22.61821867 -0.01883965 30.5359726 -0.01804566 C37.87295052 -0.01744268 45.20985547 -0.0280551 52.54681492 -0.04378933 C58.89385347 -0.05690766 65.24086821 -0.06222795 71.58792019 -0.06159025 C75.35846236 -0.06133707 79.12893903 -0.06408959 82.89946747 -0.0747683 C86.43899616 -0.08452552 89.97839752 -0.08447695 93.51793098 -0.07725167 C95.41434734 -0.07572726 97.31076393 -0.08399356 99.20716095 -0.09269166 C110.69833774 -0.0510383 121.32057241 0.25563504 130.29915619 8.16725707 C133.66748198 13.21974575 133.44643883 18.61389038 133.61089325 24.55997252 C133.63135688 25.29183851 133.65182051 26.02370449 133.67290425 26.77774823 C133.73905582 29.25130456 133.79704622 31.72495196 133.85335541 34.19875121 C133.8743177 35.08031579 133.89527999 35.96188037 133.91687751 36.87015903 C134.50609377 62.30590982 134.44637337 87.74802971 134.43445659 113.18905288 C134.43212377 118.31122953 134.43190594 123.43340287 134.43297195 128.5555799 C134.43312519 129.30115901 134.43327842 130.04673811 134.4334363 130.81491052 C134.43375629 132.33348171 134.43408051 133.85205289 134.43440889 135.37062407 C134.43724119 149.52965055 134.43402241 163.6886705 134.42860852 177.84769589 C134.42423272 189.64635846 134.42495293 201.44501075 134.42952728 213.24367309 C134.4317614 219.40635208 134.43386775 225.56903112 134.43587494 231.7317102 C134.43613212 232.49556896 134.4363893 233.25942772 134.43665427 234.04643372 C134.44239529 251.78259799 134.43615291 269.51862927 134.39443207 287.25475097 C134.39088151 288.79598176 134.38733297 290.33721256 134.38378644 291.87844336 C134.36945426 298.04713658 134.35500122 304.21582915 134.33894396 310.38451815 C134.28984602 329.57629818 134.30922676 348.76618607 134.41545832 367.95775217 C134.48640384 380.92380755 134.51723333 393.88959054 134.51930273 406.85583836 C134.52242133 415.27159538 134.56123703 423.6856088 134.64786932 432.10092668 C134.70321543 437.78982834 134.71483459 443.47776794 134.69217983 449.16688968 C134.68054409 452.43519144 134.69489532 455.69970632 134.74928999 458.96766567 C135.09150435 480.5773424 135.09150435 480.5773424 129.25253403 486.80447978 C123.3453987 492.05582475 118.07417291 493.34389689 110.29186249 493.13429809 C109.5877335 493.0891104 108.88360451 493.04392272 108.15813828 492.99736571 C105.79566565 492.84708031 103.43862589 492.76728525 101.07231903 492.70216918 C98.33513983 492.62624018 95.59875194 492.54566852 92.86230659 492.4463861 C84.43666816 492.14870434 76.0187154 492.12373407 67.58919525 492.15944457 C66.8921742 492.16230027 66.19515315 492.16515597 65.47701025 492.16809821 C62.58601033 492.18020076 59.69501244 492.19264448 56.80401778 492.20594668 C47.77143868 492.24489345 38.73900634 492.21997484 29.70641184 492.19641471 C21.11100391 492.17413222 12.5161299 492.16466827 3.92073822 492.19801879 C-3.02144649 492.22490701 -9.96296696 492.22377018 -16.90512669 492.18899798 C-20.54711675 492.17170212 -24.18790746 492.16789336 -27.8298378 492.19829345 C-31.85791767 492.23145093 -35.88322632 492.20199034 -39.91129303 492.16725707 C-41.09453156 492.18666854 -42.27777008 492.20608001 -43.49686432 492.2260797 C-44.59727051 492.20666823 -45.6976767 492.18725677 -46.83142853 492.16725707 C-47.77760984 492.16725707 -48.72379116 492.16725707 -49.69864464 492.16725707 C-54.88032118 490.44129678 -57.99113906 487.95120563 -60.70084381 483.16725707 C-61.89841184 476.89409909 -61.77332563 470.70004247 -61.7032547 464.33337951 C-61.71104242 462.38454163 -61.72232471 460.43571511 -61.7367965 458.48691541 C-61.76631919 453.13655695 -61.74593745 447.78737492 -61.71732306 442.43705428 C-61.69511819 436.66530525 -61.71898366 430.89372226 -61.73700714 425.12198424 C-61.7648858 413.81743023 -61.7497501 402.51332277 -61.71965598 391.20879 C-61.68595233 378.04796216 -61.69235414 364.88724582 -61.69984414 351.72638816 C-61.71274496 327.53738462 -61.68038696 303.34860316 -61.62946887 279.15966017 C-61.58323371 257.07837742 -61.57246455 234.99735661 -61.59293365 212.91603637 C-61.59813769 207.26107553 -61.60330772 201.60611469 -61.6081295 195.95115352 C-61.6087244 195.25495819 -61.60931929 194.55876286 -61.60993221 193.8414707 C-61.62516144 175.38899258 -61.61222004 156.9365373 -61.59073746 138.48406869 C-61.58768574 135.83931141 -61.58464503 133.19455412 -61.58161545 130.54979682 C-61.58009982 129.24848166 -61.57858419 127.9471665 -61.57702263 126.60641755 C-61.56753132 117.42936535 -61.57124379 108.25237227 -61.57974625 99.07532096 C-61.58959217 87.89460947 -61.5776641 76.71416904 -61.53795765 65.53351968 C-61.51819311 59.82729077 -61.50802307 54.12147489 -61.52374268 48.41522384 C-61.53783316 43.19358532 -61.52430354 37.97278105 -61.48853542 32.75125272 C-61.48043112 30.86041321 -61.48247208 28.96949795 -61.49557315 27.07868647 C-61.51184627 24.5106718 -61.49129539 21.94547788 -61.46147728 19.3776443 C-61.47495258 18.64106913 -61.48842788 17.90449395 -61.50231153 17.14559832 C-61.38366245 11.87327077 -59.68999381 9.27384564 -56.21660519 5.59493754 C-51.61997444 1.26541706 -47.53212141 0.66014268 -41.38443756 0.49025512 C-40.5223317 0.45723894 -39.66022583 0.42422276 -38.77199554 0.3902061 C-25.8547152 -0.04324934 -12.92319047 0.00231768 0 0 Z M-22.70084381 41.16725707 C-22.70084381 176.79725707 -22.70084381 312.42725707 -22.70084381 452.16725707 C16.23915619 452.16725707 55.17915619 452.16725707 95.29915619 452.16725707 C95.29915619 316.53725707 95.29915619 180.90725707 95.29915619 41.16725707 C56.35915619 41.16725707 17.41915619 41.16725707 -22.70084381 41.16725707 Z "
        fill="#f5f5f5" transform="translate(198.70084381103516,352.8327429294586)" />
    <path
        d="M0 0 C20.64357873 16.21995472 33.2617283 39.03033134 36.7578125 65.00390625 C39.15349956 88.22364233 33.81586592 111.32116238 19.4765625 130.00390625 C18.06540278 131.67237916 16.62561861 133.31689791 15.1640625 134.94140625 C14.73496582 135.41964844 14.30586914 135.89789063 13.86376953 136.390625 C-5.33950504 157.4850798 -30.68695213 165.9308983 -58.62109375 168.1640625 C-82.52843665 169.03548704 -108.50844852 161.20769083 -126.5234375 145.19140625 C-127.97574795 143.78992666 -129.41587748 142.37555416 -130.8359375 140.94140625 C-131.7228125 140.09578125 -132.6096875 139.25015625 -133.5234375 138.37890625 C-134.668125 137.17234375 -134.668125 137.17234375 -135.8359375 135.94140625 C-136.35414063 135.41804687 -136.87234375 134.8946875 -137.40625 134.35546875 C-146.19981211 125.00984444 -151.95915175 113.0710465 -155.8359375 100.94140625 C-156.155625 99.95914063 -156.4753125 98.976875 -156.8046875 97.96484375 C-163.22688075 74.00054858 -159.19497552 48.39344272 -147.2109375 27.046875 C-143.14457524 20.31666895 -138.34150199 14.54060279 -132.8359375 8.94140625 C-132.16046875 8.25304687 -131.485 7.5646875 -130.7890625 6.85546875 C-120.28565996 -3.13460961 -107.33298981 -9.21709056 -93.8359375 -14.05859375 C-92.93488281 -14.38730469 -92.03382813 -14.71601563 -91.10546875 -15.0546875 C-62.08666238 -25.21370012 -24.44558588 -17.74493631 0 0 Z M-107.16015625 39.5859375 C-117.70943057 53.52813923 -120.67419495 68.10040897 -118.37109375 85.44140625 C-115.70768072 98.8057509 -107.99640985 109.55103154 -97.1484375 117.69140625 C-82.10965548 127.64795779 -64.16748744 130.16092591 -46.6484375 126.75390625 C-31.29846861 123.02902667 -18.6322811 115.92749579 -10.17578125 102.2578125 C-2.09768434 87.31234082 -1.22935205 72.99465856 -5.8359375 56.94140625 C-10.67388246 44.16426956 -20.00746697 33.28671478 -32.0625 26.73046875 C-56.10566278 16.03568397 -89.15669706 19.10132931 -107.16015625 39.5859375 Z "
        fill="#f5f5f5" transform="translate(295.8359375,176.05859375)" />
    <path
        d="M0 0 C0.66 0.33 1.32 0.66 2 1 C1.36286876 1.42924347 0.72573753 1.85848695 0.06929928 2.3007378 C-4.02968814 5.59690279 -7.04534361 8.61916791 -7.84076416 13.93723786 C-8.25650582 18.95402278 -8.15725111 23.97254309 -8.08229065 29.00123596 C-8.08621742 30.95592072 -8.0941015 32.91060085 -8.10559314 34.86525577 C-8.1256951 40.22707374 -8.08975285 45.58727034 -8.04459059 50.94888175 C-8.00570141 56.73405252 -8.01887837 62.51913286 -8.02571106 68.30439758 C-8.03042883 78.32450056 -8.00220679 88.34407585 -7.95157051 98.3640461 C-7.87840723 112.85112263 -7.85498551 127.33794416 -7.84367859 141.82518541 C-7.82478444 165.32997055 -7.76417526 188.83448092 -7.67895508 212.33911133 C-7.59627042 235.17080221 -7.53253016 258.00241786 -7.49438477 280.83422852 C-7.49260916 281.8902445 -7.49260916 281.8902445 -7.49079769 282.96759414 C-7.47893081 290.03768177 -7.46744852 297.10776998 -7.45624795 304.17785869 C-7.43342321 318.57991579 -7.40803194 332.98196799 -7.38108826 347.38401794 C-7.37985265 348.04617311 -7.37861704 348.70832827 -7.37734399 349.39054874 C-7.29456467 393.5938139 -7.15177353 437.79692474 -7 482 C-7.66 481.67 -8.32 481.34 -9 481 C-9.10269971 436.09981017 -9.19822478 391.19960721 -9.25405884 346.29933167 C-9.25488718 345.63490194 -9.25571552 344.97047222 -9.25656897 344.28590827 C-9.27452599 329.84641554 -9.29114714 315.40692157 -9.30639198 300.96742573 C-9.31387606 293.88640529 -9.32165538 286.80538518 -9.32958984 279.72436523 C-9.3303744 279.0197148 -9.33115895 278.31506436 -9.33196728 277.58906088 C-9.35754005 254.74508765 -9.40261134 231.90120341 -9.45778332 209.0572841 C-9.5159758 184.91891817 -9.55197352 160.78060812 -9.56453097 136.6421743 C-9.57277342 122.17946057 -9.59882849 107.7170023 -9.6474988 93.25436718 C-9.67915658 83.34367232 -9.6888137 73.43310997 -9.68100826 63.52236819 C-9.67715621 57.79994767 -9.68315903 52.07797427 -9.71523285 46.35563278 C-9.74437089 41.11894817 -9.74594507 35.88301254 -9.72539337 30.64629389 C-9.72285233 28.74980077 -9.73051544 26.85326144 -9.74929909 24.95685964 C-9.7733313 22.38123203 -9.76043751 19.80831852 -9.73828697 17.23273373 C-9.75404905 16.49387177 -9.76981114 15.75500982 -9.78605086 14.99375811 C-9.68369235 9.73830982 -8.02108838 7.12435535 -4.57951335 3.43713045 C-3 2 -3 2 0 0 Z "
        fill="#f5f5f5" transform="translate(147,355)" />
    <path
        d="M0 0 C0.66 0.33 1.32 0.66 2 1 C-5.92 8.92 -13.84 16.84 -22 25 C-22.66 24.67 -23.32 24.34 -24 24 C-7.94924527 6.54897172 -7.94924527 6.54897172 0 0 Z "
        fill="#6B6B6B" transform="translate(69,45)" />
    <path
        d="M0 0 C0.66 0.33 1.32 0.66 2 1 C-3.94 6.94 -9.88 12.88 -16 19 C-16.66 18.67 -17.32 18.34 -18 18 C-12.37361021 11.50903494 -6.55902307 5.55113536 0 0 Z "
        fill="#5D5D5D" transform="translate(172,177)" />
    <path
        d="M0 0 C0.66 0.33 1.32 0.66 2 1 C-1.63 4.63 -5.26 8.26 -9 12 C-9.33 11.01 -9.66 10.02 -10 9 C-8.89902432 7.87187697 -7.79408444 6.74762189 -6.6875 5.625 C-6.07261719 4.99851562 -5.45773437 4.37203125 -4.82421875 3.7265625 C-3 2 -3 2 0 0 Z "
        fill="#5A5A5A" transform="translate(364,355)" />
    <path
        d="M0 0 C0.66 0.33 1.32 0.66 2 1 C-0.97 3.97 -3.94 6.94 -7 10 C-7.33 9.34 -7.66 8.68 -8 8 C-3.375 2.25 -3.375 2.25 0 0 Z "
        fill="#6B6B6B" transform="translate(147,355)" />
</svg>