<svg version="1.1" xmlns="http://www.w3.org/2000/svg" width="510" height="510">
    <path
        d="M0 0 C0.33 0.66 0.66 1.32 1 2 C1.66 2.33 2.32 2.66 3 3 C3.66 3.99 4.32 4.98 5 6 C4.67 6.33 4.34 6.66 4 7 C3.88139982 9.07496554 3.83257429 11.15394224 3.81054688 13.23217773 C3.80225357 13.8826004 3.79396027 14.53302307 3.78541565 15.20315552 C3.76798102 16.61965402 3.75282361 18.03618192 3.73963928 19.45272636 C3.71866789 21.69236279 3.69164037 23.93185184 3.66296387 26.17140198 C3.60317239 30.92671176 3.55107043 35.68208962 3.5 40.4375 C3.4408293 45.94273118 3.37855211 51.44788997 3.30812073 56.95298958 C3.28149504 59.16325198 3.26070977 61.37352141 3.2401123 63.58384705 C3.22351127 64.93537748 3.20663961 66.28690462 3.18945312 67.63842773 C3.17692505 68.82121811 3.16439697 70.00400848 3.15148926 71.22264099 C3 74 3 74 2 76 C1.01 75.67 0.02 75.34 -1 75 C-1 74.34 -1 73.68 -1 73 C-1.928125 72.608125 -2.85625 72.21625 -3.8125 71.8125 C-7.30451748 69.826843 -8.07918846 68.405075 -10 65 C-10.66 64.67 -11.32 64.34 -12 64 C-14 63 -14 63 -15.18484974 60.47745228 C-16.81162802 57.67385288 -16.81162802 57.67385288 -20.11780071 57.36914349 C-22.06047943 57.36499542 -22.06047943 57.36499542 -24.04240417 57.36076355 C-24.76367266 57.35240787 -25.48494115 57.3440522 -26.22806627 57.33544332 C-28.65147371 57.31344836 -31.07337513 57.32713885 -33.49682617 57.34057617 C-35.23124852 57.33212666 -36.96566138 57.32148426 -38.70005798 57.30880737 C-43.41473757 57.28058675 -48.12896336 57.2831457 -52.84370208 57.29110122 C-57.76853554 57.29421972 -62.69322279 57.26921123 -67.61799622 57.24714661 C-76.94648805 57.20964592 -86.27483409 57.19755506 -95.60339385 57.1945222 C-106.22243705 57.1898379 -116.8413336 57.15693478 -127.46031225 57.12162435 C-149.30689408 57.04961381 -171.15330121 57.0168864 -193 57 C-193 70.53 -193 84.06 -193 98 C-148.12 98 -103.24 98 -57 98 C-57.78753761 102.72522567 -58.24407578 104.97957011 -60.3359375 108.94921875 C-61.05934326 110.33210083 -61.05934326 110.33210083 -61.79736328 111.74291992 C-62.3179834 112.71463135 -62.83860352 113.68634277 -63.375 114.6875 C-63.90722168 115.69466064 -64.43944336 116.70182129 -64.98779297 117.73950195 C-69.74875082 126.68124184 -74.77478843 135.46136884 -79.95361328 144.16674805 C-81.04459524 146.07813011 -82.03334197 148.0232417 -83 150 C-83.66 150 -84.32 150 -85 150 C-85 149.34 -85 148.68 -85 148 C-89.64586892 148.48484276 -89.64586892 148.48484276 -94 150 C-94 149.34 -94 148.68 -94 148 C-94.76183594 148.0721875 -95.52367187 148.144375 -96.30859375 148.21875 C-101.23885287 148.66191936 -106.10964534 149.06538422 -111.0625 149 C-114.90447286 148.79247553 -114.90447286 148.79247553 -118 150 C-118 149.34 -118 148.68 -118 148 C-118.77773773 148.0714624 -119.55547546 148.1429248 -120.35678101 148.21655273 C-128.54384529 148.91483582 -136.63811149 149.11967132 -144.8515625 149.0625 C-146.11342377 149.05871338 -147.37528503 149.05492676 -148.67538452 149.05102539 C-152.65862087 149.03892476 -156.64180038 149.02045381 -160.625 149 C-165.90884883 148.97312708 -171.19266647 148.95347717 -176.4765625 148.9375 C-177.68897614 148.92920166 -178.90138977 148.92090332 -180.15054321 148.91235352 C-181.26956024 148.90905029 -182.38857727 148.90574707 -183.54150391 148.90234375 C-184.52599518 148.89710693 -185.51048645 148.89187012 -186.52481079 148.88647461 C-189.13471959 148.8935567 -189.13471959 148.8935567 -192 150 C-192.16814062 155.72898164 -192.32864313 161.45810828 -192.48217773 167.1875 C-192.53543377 169.1351492 -192.5907494 171.08274325 -192.64819336 173.03027344 C-192.73056379 175.83516552 -192.80544142 178.64017474 -192.87890625 181.4453125 C-192.90594131 182.31116974 -192.93297638 183.17702698 -192.96083069 184.06912231 C-192.98092697 184.88951996 -193.00102325 185.7099176 -193.02172852 186.55517578 C-193.04171402 187.27021271 -193.06169952 187.98524963 -193.08229065 188.72195435 C-192.98060601 191.53688225 -192.48019083 194.22706878 -192 197 C-170.26844214 197.21046704 -148.53705291 197.36905946 -126.80468178 197.46630955 C-116.71335354 197.51266979 -106.62265943 197.57584719 -96.53173828 197.67895508 C-87.73396158 197.76880672 -78.93664422 197.82675839 -70.13842142 197.84679645 C-65.48177417 197.85850579 -60.82644071 197.88591954 -56.17021561 197.95157051 C-51.78183067 198.01294018 -47.39529264 198.03144968 -43.00651932 198.01796913 C-41.40128518 198.02043288 -39.79598543 198.03817406 -38.19112396 198.07284927 C-30.32931001 198.23429525 -24.33380398 198.12053123 -18.1902771 192.6370697 C-16.76805861 191.11477287 -15.36836592 189.57088121 -14 188 C-12.81617316 186.90997152 -11.61925997 185.83358392 -10.3984375 184.78515625 C-9.39036598 183.87789188 -8.3825426 182.97035171 -7.375 182.0625 C-6.58416016 181.36157227 -6.58416016 181.36157227 -5.77734375 180.64648438 C-4.47987266 179.47202029 -3.23431159 178.24067402 -2 177 C-2 176.34 -2 175.68 -2 175 C-0.35 175 1.3 175 3 175 C4.15046873 199.43637324 3.59830403 223.4695349 3 248 C-134.115 248.495 -134.115 248.495 -274 249 C-274.66 247.68 -275.32 246.36 -276 245 C-275.31292969 244.36320313 -274.62585938 243.72640625 -273.91796875 243.0703125 C-270.22763806 239.37868102 -267.32264415 235.12260998 -264.3125 230.875 C-263.44141602 229.65876953 -263.44141602 229.65876953 -262.55273438 228.41796875 C-257.02236997 221.0174459 -257.02236997 221.0174459 -256 212 C-256.495 211.01 -256.495 211.01 -257 210 C-256.34 210 -255.68 210 -255 210 C-255.0721875 209.15179688 -255.144375 208.30359375 -255.21875 207.4296875 C-255.81696261 199.86894485 -256.07499631 192.45135902 -255.9375 184.86328125 C-255.86055756 181.9259116 -255.86055756 181.9259116 -257 179 C-256.34 179 -255.68 179 -255 179 C-255.0721875 178.24460937 -255.144375 177.48921875 -255.21875 176.7109375 C-256.16634811 165.47137106 -256.09951579 154.27131164 -256 143 C-256.33 143 -256.66 143 -257 143 C-257 139.66666667 -257 136.33333333 -257 133 C-257.04125 132.175 -257.0825 131.35 -257.125 130.5 C-257 128 -257 128 -255 125 C-255.66 124.67 -256.32 124.34 -257 124 C-257 122.68 -257 121.36 -257 120 C-256.34 120 -255.68 120 -255 120 C-255 116.04 -255 112.08 -255 108 C-255.66 108 -256.32 108 -257 108 C-257 103.11214329 -256.96343044 99.54043289 -255 95 C-255.66 95 -256.32 95 -257 95 C-256.42978066 89.6496441 -255.79265639 84.32212148 -255 79 C-255.66 79 -256.32 79 -257 79 C-257 78.01 -257 77.02 -257 76 C-256.34 76 -255.68 76 -255 76 C-255.0934007 70.62452409 -255.1994635 65.24950579 -255.31738281 59.87451172 C-255.35571777 58.04515471 -255.39056263 56.21572115 -255.421875 54.38623047 C-255.46742805 51.75981241 -255.52543731 49.13392341 -255.5859375 46.5078125 C-255.59748871 45.68693146 -255.60903992 44.86605042 -255.62094116 44.02029419 C-255.5572544 39.5375356 -255.5572544 39.5375356 -258 36 C-260.57061311 35.35232207 -260.57061311 35.35232207 -263 35 C-262.34 34.34 -261.68 33.68 -261 33 C-261.77923828 32.32904297 -261.77923828 32.32904297 -262.57421875 31.64453125 C-266.52821919 28.21675638 -270.29892184 24.70107816 -274 21 C-275.010625 20.175 -276.02125 19.35 -277.0625 18.5 C-279.80236534 16.16819971 -281.82689536 13.84751643 -284 11 C-284.5775 10.484375 -285.155 9.96875 -285.75 9.4375 C-287 8 -287 8 -287 4 C-269.79701272 2.72671481 -252.58528031 2.88122977 -235.34802246 2.93133545 C-231.40129128 2.94169729 -227.45455347 2.94616549 -223.5078125 2.95117188 C-216.61001065 2.9606491 -209.71223815 2.97508525 -202.81445312 2.99327087 C-199.44100052 3.00133652 -196.0686152 2.99297241 -192.6953125 2.96484375 C-176.77524627 2.8715991 -160.90545751 3.36439026 -145 4 C-144.67 3.34 -144.34 2.68 -144 2 C-144 2.66 -144 3.32 -144 4 C-142.83694336 3.83544815 -141.67388672 3.6708963 -140.47558594 3.50135803 C-136.42381503 2.99741903 -132.47741739 2.91441535 -128.390625 2.97827148 C-127.3208567 2.9926828 -127.3208567 2.9926828 -126.22947693 3.00738525 C-123.90287262 3.04002148 -121.5764776 3.08048489 -119.25 3.12109375 C-117.62476307 3.14542959 -115.99951867 3.16927134 -114.37426758 3.19264221 C-110.11964337 3.25513881 -105.86515322 3.32430084 -101.61065674 3.39489746 C-97.26003059 3.46589405 -92.90931023 3.53052282 -88.55859375 3.59570312 C-80.03895809 3.72427097 -71.51945359 3.85988748 -63 4 C-62.67 3.34 -62.34 2.68 -62 2 C-61.01 2.495 -61.01 2.495 -60 3 C-58.12080452 3.09110781 -56.23833208 3.11752837 -54.35693359 3.11352539 C-53.17586029 3.11344986 -51.99478699 3.11337433 -50.77792358 3.11329651 C-48.85757797 3.10555458 -48.85757797 3.10555458 -46.8984375 3.09765625 C-45.59170074 3.0962413 -44.28496399 3.09482635 -42.93862915 3.09336853 C-39.46323742 3.08954894 -35.98788743 3.07972342 -32.51251221 3.06866455 C-28.96668055 3.05843843 -25.42084215 3.05386833 -21.875 3.04882812 C-14.91664951 3.03810066 -7.95832676 3.02103092 -1 3 C-0.67 2.01 -0.34 1.02 0 0 Z M-256 128 C-255 132 -255 132 -255 132 Z M-256 136 C-255 138 -255 138 -255 138 Z "
        fill="#000000" transform="translate(383,98)" />
    <path
        d="M0 0 C2.23803711 1.05639648 2.23803711 1.05639648 4.52734375 2.37109375 C5.39020996 2.85795654 6.25307617 3.34481934 7.14208984 3.84643555 C8.0645752 4.37148682 8.98706055 4.89653809 9.9375 5.4375 C33.47059365 18.51556108 58.28847762 27.81828478 83.75 36.375 C84.98685547 36.79201172 86.22371094 37.20902344 87.49804688 37.63867188 C100.48110421 42.23223401 100.48110421 42.23223401 114 44 C114 44.66 114 45.32 114 46 C114.63421875 46.09796875 115.2684375 46.1959375 115.921875 46.296875 C122.4590571 47.34426882 128.9491117 48.56469902 135.4375 49.875 C136.29794922 50.04741211 137.15839844 50.21982422 138.04492188 50.39746094 C142.31052782 51.25277927 146.5732054 52.11936179 150.83203125 53.0078125 C161.74448156 55.23600344 172.70487908 56.85231301 183.75 58.25 C184.44154175 58.33894531 185.1330835 58.42789063 185.84558105 58.51953125 C193.27253423 59.46684445 200.51020682 60.23096279 208 60 C209.2128389 63.63851669 209.23081838 67.0505491 209.31640625 70.84375 C209.33718735 71.60925171 209.35796844 72.37475342 209.37937927 73.16345215 C209.44470258 75.60887775 209.50363095 78.05441138 209.5625 80.5 C209.60570967 82.14714623 209.64932474 83.79428187 209.69335938 85.44140625 C210 97.10430076 210 97.10430076 210 101 C210.00163651 102.17678314 210.00327301 103.35356628 210.00495911 104.56600952 C210.05014529 137.43834132 209.96299794 170.30996789 209.76428032 203.18167496 C209.71906632 210.70329789 209.67951327 218.22486564 209.65356445 225.74658203 C209.63040265 232.4595505 209.59690022 239.17237647 209.55129844 245.88523138 C209.52779549 249.39016819 209.50878595 252.89496918 209.50238609 256.39998245 C209.44932472 277.53790223 208.28847724 297.71391561 202 318 C201.75813965 318.78165527 201.5162793 319.56331055 201.26708984 320.36865234 C200.48395018 322.87557427 199.68393501 325.37628963 198.875 327.875 C198.62129639 328.66737061 198.36759277 329.45974121 198.10620117 330.27612305 C196.23690256 335.88154872 196.23690256 335.88154872 194 337 C193.74347656 337.82242187 193.48695313 338.64484375 193.22265625 339.4921875 C191.59765613 344.15432841 189.09989746 347.98798055 186.4375 352.125 C185.9002832 352.96595215 185.36306641 353.8069043 184.80957031 354.67333984 C178.70216528 364.14326919 172.16378155 373.03036116 164.43359375 381.2578125 C162.78819874 382.88136113 162.78819874 382.88136113 163 385 C162.34 385 161.68 385 161 385 C160.67 385.99 160.34 386.98 160 388 C158.64355469 389.34838867 158.64355469 389.34838867 156.921875 390.73046875 C152.85941045 394.08790313 149.06570055 397.67984901 145.25 401.3125 C139.03701389 407.17559952 132.73535726 412.73831122 126 418 C124.63681641 419.09054687 124.63681641 419.09054687 123.24609375 420.203125 C105.94253617 433.82939459 87.53652622 446.02437126 68.57421875 457.203125 C67.64955811 457.7506543 66.72489746 458.29818359 65.7722168 458.86230469 C63.95121257 459.93806835 62.12595468 461.00667007 60.29614258 462.06738281 C59.47654053 462.55045898 58.65693848 463.03353516 57.8125 463.53125 C57.07644531 463.95986328 56.34039062 464.38847656 55.58203125 464.83007812 C55.05996094 465.21615234 54.53789062 465.60222656 54 466 C54 466.66 54 467.32 54 468 C52.9003894 468.17063965 52.9003894 468.17063965 51.77856445 468.34472656 C48.91614938 469.01977463 47.03714643 469.9509116 44.54296875 471.484375 C43.68848145 472.00169189 42.83399414 472.51900879 41.95361328 473.05200195 C41.0407959 473.61234131 40.12797852 474.17268066 39.1875 474.75 C27.33644448 481.90108266 15.21562581 488.49647417 3 495 C3 495.66 3 496.32 3 497 C2.236875 497.144375 1.47375 497.28875 0.6875 497.4375 C-2.08172908 497.9632594 -2.08172908 497.9632594 -5 499 C-7.02124023 498.1796875 -7.02124023 498.1796875 -9.30859375 496.875 C-10.13810547 496.41609375 -10.96761719 495.9571875 -11.82226562 495.484375 C-13.56280156 494.49646812 -15.30238976 493.50688956 -17.04101562 492.515625 C-17.87181641 492.05671875 -18.70261719 491.5978125 -19.55859375 491.125 C-20.69252563 490.47917969 -20.69252563 490.47917969 -21.84936523 489.8203125 C-24.36356699 488.86132534 -25.51345628 489.08644631 -28 490 C-28.04382813 489.41347656 -28.08765625 488.82695312 -28.1328125 488.22265625 C-29.4540107 484.83634194 -31.70908368 484.13013193 -34.875 482.4375 C-36.14022954 481.75166993 -37.40449828 481.06406535 -38.66796875 480.375 C-39.35681152 480.00246094 -40.0456543 479.62992187 -40.75537109 479.24609375 C-43.21799934 477.87897883 -45.63453838 476.44745544 -48.05078125 475 C-48.90236816 474.49283447 -49.75395508 473.98566895 -50.63134766 473.46313477 C-52.32116143 472.45457256 -54.00712722 471.43953207 -55.68896484 470.41772461 C-56.46578613 469.95889893 -57.24260742 469.50007324 -58.04296875 469.02734375 C-58.73414795 468.61218506 -59.42532715 468.19702637 -60.13745117 467.76928711 C-62.1685054 466.69259213 -62.1685054 466.69259213 -65 468 C-65.19722656 467.4225 -65.39445313 466.845 -65.59765625 466.25 C-67.55326188 463.1123152 -70.29141162 461.75815597 -73.4375 460 C-74.78903837 459.21704562 -76.13923207 458.43176682 -77.48828125 457.64453125 C-78.57423584 457.01345459 -78.57423584 457.01345459 -79.68212891 456.36962891 C-83.87984046 453.88920318 -88.001529 451.28885761 -92.125 448.6875 C-92.92993896 448.18412109 -93.73487793 447.68074219 -94.56420898 447.16210938 C-97.81837818 445.1089366 -100.8892909 443.09095039 -103.8671875 440.64453125 C-105.94709317 438.69468921 -105.94709317 438.69468921 -109 439 C-110.69157087 437.35861535 -112.35324921 435.68634735 -114 434 C-116.32833093 432.15248327 -118.75074519 430.4508905 -121.1875 428.75 C-121.81591797 428.30398438 -122.44433594 427.85796875 -123.09179688 427.3984375 C-126.43692547 425.02175043 -126.43692547 425.02175043 -130 423 C-130 422.34 -130 421.68 -130 421 C-130.56074219 420.74863281 -131.12148437 420.49726563 -131.69921875 420.23828125 C-139.42266577 416.08151944 -146.1078491 409.09153077 -152.75 403.375 C-153.36335205 402.8493042 -153.9767041 402.3236084 -154.60864258 401.78198242 C-158.93303029 398.03518898 -162.9945819 394.08393127 -167 390 C-167.52553467 389.47784912 -168.05106934 388.95569824 -168.5925293 388.41772461 C-170.33599114 386.66156105 -171.94326183 384.80854194 -173.5625 382.9375 C-175.33238213 380.89357161 -177.08766823 378.91233177 -179 377 C-183.59442227 371.19651924 -187.80319607 365.0933462 -192 359 C-192.87978516 357.72962891 -192.87978516 357.72962891 -193.77734375 356.43359375 C-194.32519531 355.63050781 -194.87304688 354.82742188 -195.4375 354 C-196.17806641 352.9171875 -196.17806641 352.9171875 -196.93359375 351.8125 C-198 350 -198 350 -198 348 C-198.66 347.67 -199.32 347.34 -200 347 C-218.59736199 312.8629504 -220.3637537 276.72357067 -220.07904053 238.71179199 C-220.03505993 232.66454122 -220.00608277 226.61723439 -219.9829998 220.5698719 C-219.97288834 218.48152878 -219.9558607 216.39332774 -219.93800354 214.30503845 C-219.93147263 213.03833817 -219.92494171 211.77163788 -219.91821289 210.46655273 C-219.90995987 209.35900131 -219.90170685 208.25144989 -219.89320374 207.1103363 C-219.92209447 203.99647729 -219.92209447 203.99647729 -220.56761169 200.97084045 C-221.04672881 197.67893714 -220.55131172 195.26971566 -220 192 C-219.91616812 190.10316385 -219.87792333 188.20389317 -219.87974548 186.3052063 C-219.87837082 185.19470413 -219.87699615 184.08420197 -219.87557983 182.94004822 C-219.87917511 181.73667313 -219.88277039 180.53329803 -219.88647461 179.29345703 C-219.88632858 178.01486313 -219.88618256 176.73626923 -219.8860321 175.41893005 C-219.88574598 171.92558094 -219.89161283 168.43226637 -219.89860606 164.93892527 C-219.90487037 161.2834125 -219.90544583 157.62789889 -219.90663147 153.97238159 C-219.90973572 147.05583538 -219.91793688 140.13930504 -219.92798096 133.2227658 C-219.93917025 125.34611609 -219.94465964 117.4694656 -219.94967639 109.59280992 C-219.96012026 93.39519733 -219.97770213 77.19760069 -220 61 C-218.76860196 60.87663049 -218.76860196 60.87663049 -217.51232719 60.75076866 C-214.41255921 60.43891352 -211.31304826 60.12463559 -208.21368217 59.8088131 C-206.23420661 59.60781946 -204.25445796 59.40952097 -202.27470398 59.21128845 C-191.47016301 58.10756317 -180.81227918 56.53602372 -170.125 54.625 C-168.37112781 54.31792066 -166.61722102 54.01103882 -164.86328125 53.7043457 C-155.21504501 52.00306801 -145.58496835 50.21793631 -136 48.1875 C-134.60418701 47.89576904 -134.60418701 47.89576904 -133.18017578 47.59814453 C-131.10324388 47.1355644 -129.04749969 46.57911273 -127 46 C-126.505 45.01 -126.505 45.01 -126 44 C-124.63294922 44.09087891 -124.63294922 44.09087891 -123.23828125 44.18359375 C-117.69002802 44.17109456 -112.49811159 42.53267379 -107.1875 41.0625 C-106.05401123 40.75256104 -104.92052246 40.44262207 -103.75268555 40.12329102 C-86.1444699 35.19901095 -68.8523435 29.09133266 -52 22 C-52 21.34 -52 20.68 -52 20 C-50.89527344 19.92652344 -49.79054687 19.85304688 -48.65234375 19.77734375 C-43.16926244 19.08247489 -38.5299933 16.89121748 -33.5625 14.5625 C-32.60545166 14.12381592 -31.64840332 13.68513184 -30.66235352 13.2331543 C-23.60799199 9.93212375 -16.89001684 6.2190551 -10.36743164 1.96118164 C-6.36419213 -0.57034553 -4.52590639 -1.33367964 0 0 Z M-12.8125 36.625 C-14.13137516 37.32577546 -15.45038771 38.02629238 -16.76953125 38.7265625 C-17.79300659 39.27872437 -17.79300659 39.27872437 -18.8371582 39.84204102 C-26.92566658 44.17252925 -35.18524828 47.86869776 -43.6875 51.3125 C-44.86578369 51.79033936 -46.04406738 52.26817871 -47.25805664 52.76049805 C-62.81784676 59.00679326 -78.59274079 64.4717889 -94.70874023 69.09887695 C-95.47903564 69.32148193 -96.24933105 69.54408691 -97.04296875 69.7734375 C-97.71352295 69.96341309 -98.38407715 70.15338867 -99.07495117 70.34912109 C-101.06070091 70.9670137 -101.06070091 70.9670137 -103.03588867 72.05029297 C-105.48382762 73.23394524 -107.82619608 73.36296024 -110.50488281 73.64648438 C-114.73458203 74.24576074 -118.85029805 75.32931041 -123.00170898 76.32373047 C-142.72338029 81.04002552 -162.67090631 84.4154088 -182.84765625 86.5078125 C-186.08975332 86.69671287 -186.08975332 86.69671287 -188 89 C-188.19967561 91.54980261 -188.27367878 93.99135244 -188.26069641 96.54252625 C-188.26452196 97.32994432 -188.26834751 98.11736239 -188.27228898 98.92864162 C-188.28265428 101.58229599 -188.27862 104.23573539 -188.2746582 106.8894043 C-188.27900315 108.78652142 -188.28418557 110.68363678 -188.29014587 112.58074951 C-188.30358142 117.74884843 -188.30410871 122.91687441 -188.30158257 128.0849874 C-188.30051434 132.40318035 -188.30539329 136.72135845 -188.310188 141.03954822 C-188.32130233 151.23967423 -188.32171205 161.43976343 -188.31567383 171.63989258 C-188.30965335 182.13928858 -188.32189148 192.63854992 -188.3432439 203.13792294 C-188.36091591 212.16148628 -188.36685182 221.185007 -188.36360615 230.20858699 C-188.36179952 235.59308672 -188.36436582 240.97749074 -188.37832069 246.36197472 C-188.3909829 251.43861658 -188.38887623 256.51505104 -188.37590981 261.59169006 C-188.37356132 263.44467046 -188.37621587 265.29766582 -188.38453293 267.15062904 C-188.43043567 278.18273355 -187.64892736 288.26322461 -185 299 C-184.80803197 299.81918254 -184.61606394 300.63836508 -184.41827869 301.48237133 C-179.05142386 323.39792031 -166.80695035 343.16794276 -152 360 C-151.20207031 360.9075 -150.40414062 361.815 -149.58203125 362.75 C-144.47384619 368.5523279 -144.47384619 368.5523279 -139 374 C-138.34 374 -137.68 374 -137 374 C-136.7525 374.61875 -136.505 375.2375 -136.25 375.875 C-134.79371361 378.35068687 -133.62187494 378.95125002 -131 380 C-131 380.66 -131 381.32 -131 382 C-129.28667246 383.58533702 -127.50310953 385.09541215 -125.6875 386.5625 C-124.70136719 387.36816406 -123.71523437 388.17382812 -122.69921875 389.00390625 C-120.10704378 391.13643993 -120.10704378 391.13643993 -117 392 C-117 392.66 -117 393.32 -117 394 C-115.49158842 395.44570916 -115.49158842 395.44570916 -113.46875 396.9140625 C-112.69055908 397.501875 -111.91236816 398.0896875 -111.1105957 398.6953125 C-110.24909912 399.33210938 -109.38760254 399.96890625 -108.5 400.625 C-107.60434326 401.29015625 -106.70868652 401.9553125 -105.78588867 402.640625 C-77.11114787 424.8160637 -77.11114787 424.8160637 -45 441 C-41.10707321 443.10218047 -37.45014648 445.35967639 -33.8125 447.875 C-29.44168401 450.83085692 -24.88234543 453.12579242 -20.12890625 455.40234375 C-15.82714194 457.59887509 -11.81601883 460.21254953 -7.7890625 462.875 C-5.02962002 464.28333037 -5.02962002 464.28333037 -2.06640625 463.421875 C1.30424251 461.85892449 4.48472185 460.13441679 7.6875 458.25 C8.91738733 457.53155583 10.14786397 456.81411962 11.37890625 456.09765625 C11.98621582 455.7433252 12.59352539 455.38899414 13.21923828 455.02392578 C16.66634664 453.0418621 20.18288179 451.18719491 23.6953125 449.32421875 C25.98942368 448.07624861 25.98942368 448.07624861 27.85742188 446.56054688 C30.03277673 444.97612707 32.15669424 443.85789583 34.5859375 442.70703125 C40.12209498 439.99158143 45.37004134 436.90841493 50.625 433.6875 C51.59832275 433.09227539 52.57164551 432.49705078 53.57446289 431.88378906 C61.28043809 427.13352196 68.88403738 422.23791144 76.4375 417.25 C77.49211426 416.55865967 78.54672852 415.86731934 79.63330078 415.1550293 C80.59864746 414.51090088 81.56399414 413.86677246 82.55859375 413.203125 C83.84721313 412.34702637 83.84721313 412.34702637 85.16186523 411.47363281 C85.76844971 410.98733398 86.37503418 410.50103516 87 410 C87 409.34 87 408.68 87 408 C87.81791016 407.87238281 87.81791016 407.87238281 88.65234375 407.7421875 C91.7758202 406.75473238 93.93721093 405.07521473 96.5625 403.125 C97.51253906 402.42632812 98.46257812 401.72765625 99.44140625 401.0078125 C102.40175478 398.6891021 102.40175478 398.6891021 105 396 C105 395.34 105 394.68 105 394 C105.54785156 393.92394531 106.09570312 393.84789062 106.66015625 393.76953125 C109.86913539 392.71415748 111.86704799 390.86578873 114.4375 388.6875 C115.36433594 387.90761719 116.29117187 387.12773437 117.24609375 386.32421875 C118.15488281 385.55722656 119.06367188 384.79023438 120 384 C120.93972656 383.28457031 121.87945312 382.56914062 122.84765625 381.83203125 C123.55792969 381.22746094 124.26820313 380.62289063 125 380 C125 379.34 125 378.68 125 378 C125.57234375 377.7525 126.1446875 377.505 126.734375 377.25 C129.35010611 375.80683801 131.14773456 374.11783778 133.25 372 C133.95640625 371.29875 134.6628125 370.5975 135.390625 369.875 C137.21710399 368.15889232 137.21710399 368.15889232 137 366 C137.66 366 138.32 366 139 366 C142.91327696 362.28054101 146.51460715 358.28139679 148 353 C148.66 353 149.32 353 150 353 C152.81900549 349.42653038 155.29347844 345.60904685 157.80078125 341.8125 C158.89558615 340.15781116 160.00932917 338.5156924 161.125 336.875 C181.99104166 304.92387371 180.31042292 266.63254279 180.20278788 230.01823854 C180.19013621 224.97614371 180.1890988 219.93404552 180.18673706 214.89193726 C180.18056413 205.37991863 180.16421108 195.86794693 180.14403808 186.35594881 C180.12154735 175.51163705 180.1106528 164.66732285 180.10064721 153.82299352 C180.07984027 131.54863633 180.04474734 109.27432114 180 87 C178.2984375 87.0309375 178.2984375 87.0309375 176.5625 87.0625 C173 87 173 87 172 86 C170.50158604 85.92796087 168.99999258 85.91613935 167.5 85.9375 C166.6853125 85.94652344 165.870625 85.95554688 165.03125 85.96484375 C164.02578125 85.98224609 164.02578125 85.98224609 163 86 C162.67 86 162.34 86 162 86 C162 85.67 162 85.34 162 85 C161.40574219 84.91959473 160.81148438 84.83918945 160.19921875 84.75634766 C157.46549987 84.38380937 154.73276777 84.00444973 152 83.625 C151.06542969 83.49867187 150.13085938 83.37234375 149.16796875 83.2421875 C144.87208954 82.64136523 140.66715751 81.98104833 136.46484375 80.89453125 C133.20273137 79.88312593 133.20273137 79.88312593 130.5625 80.0625 C127.35550014 79.98428049 124.88316095 78.99677162 121.875 77.9296875 C115.6881386 75.92904482 109.31590028 74.53238236 103 73 C102.28972656 72.81824219 101.57945312 72.63648438 100.84765625 72.44921875 C98.4940597 71.87699126 96.1262171 71.40649022 93.75 70.9375 C92.85796875 70.76089844 91.9659375 70.58429688 91.046875 70.40234375 C90.03367187 70.20318359 90.03367187 70.20318359 89 70 C89.33 70.99 89.66 71.98 90 73 C89.34 73 88.68 73 88 73 C88 71.68 88 70.36 88 69 C85.45986091 68.1824493 82.91806769 67.37084814 80.375 66.5625 C79.66214844 66.33240234 78.94929688 66.10230469 78.21484375 65.86523438 C75.04601618 64.86225684 72.03669463 64.00608637 68.75 63.4609375 C66.03992385 63.00669178 64.07684904 62.27019516 61.625 61.0625 C57.45199377 59.12452761 53.51709923 57.88728735 49 57 C48.67 57.33 48.34 57.66 48 58 C47.01 56.515 47.01 56.515 46 55 C43.69133334 53.69922108 43.69133334 53.69922108 40.94921875 52.58984375 C39.43618164 51.94112305 39.43618164 51.94112305 37.89257812 51.27929688 C36.83490234 50.83650391 35.77722656 50.39371094 34.6875 49.9375 C33.64142578 49.49083984 32.59535156 49.04417969 31.51757812 48.58398438 C25.98061283 46.22572632 25.98061283 46.22572632 20.39331055 43.99072266 C18.21220387 43.08784283 16.27773275 42.08462014 14.2578125 40.87109375 C13.58363281 40.47599609 12.90945313 40.08089844 12.21484375 39.67382812 C10.82567555 38.8520118 9.44020807 38.02390638 8.05859375 37.18945312 C0.21469389 32.62505045 -4.92963898 32.23279005 -12.8125 36.625 Z "
        fill="#070707" transform="translate(258,5)" />
    <path
        d="M0 0 C58.74 0 117.48 0 178 0 C178 0.33 178 0.66 178 1 C119.59 1 61.18 1 1 1 C1 15.19 1 29.38 1 44 C46.21 44 91.42 44 138 44 C134.62390438 54.12828685 134.62390438 54.12828685 131.92578125 59.07421875 C131.34401123 60.14800781 130.76224121 61.22179687 130.1628418 62.328125 C129.552229 63.43671875 128.94161621 64.5453125 128.3125 65.6875 C127.68835205 66.83347656 127.0642041 67.97945313 126.42114258 69.16015625 C122.48113091 76.37269285 118.4812274 83.54833318 114.35546875 90.65625 C113.53086854 92.08207169 112.73660478 93.52679044 112 95 C111.34 95 110.68 95 110 95 C110 94.34 110 93.68 110 93 C105.35413108 93.48484276 105.35413108 93.48484276 101 95 C101 94.34 101 93.68 101 93 C99.85724609 93.10828125 99.85724609 93.10828125 98.69140625 93.21875 C93.76114713 93.66191936 88.89035466 94.06538422 83.9375 94 C80.09552714 93.79247553 80.09552714 93.79247553 77 95 C77 94.34 77 93.68 77 93 C76.22226227 93.0714624 75.44452454 93.1429248 74.64321899 93.21655273 C66.45615471 93.91483582 58.36188851 94.11967132 50.1484375 94.0625 C48.88657623 94.05871338 47.62471497 94.05492676 46.32461548 94.05102539 C42.34137913 94.03892476 38.35819962 94.02045381 34.375 94 C29.09115117 93.97312708 23.80733353 93.95347717 18.5234375 93.9375 C17.31102386 93.92920166 16.09861023 93.92090332 14.84945679 93.91235352 C13.73043976 93.90905029 12.61142273 93.90574707 11.45849609 93.90234375 C10.47400482 93.89710693 9.48951355 93.89187012 8.47518921 93.88647461 C5.86528041 93.8935567 5.86528041 93.8935567 3 95 C2.83185938 100.72898164 2.67135687 106.45810828 2.51782227 112.1875 C2.46456623 114.1351492 2.4092506 116.08274325 2.35180664 118.03027344 C2.26943621 120.83516552 2.19455858 123.64017474 2.12109375 126.4453125 C2.09405869 127.31116974 2.06702362 128.17702698 2.03916931 129.06912231 C2.01907303 129.88951996 1.99897675 130.7099176 1.97827148 131.55517578 C1.95828598 132.27021271 1.93830048 132.98524963 1.91770935 133.72195435 C2.01939399 136.53688225 2.51980917 139.22706878 3 142 C24.73155786 142.21046704 46.46294709 142.36905946 68.19531822 142.46630955 C78.28664646 142.51266979 88.37734057 142.57584719 98.46826172 142.67895508 C107.26603842 142.76880672 116.06335578 142.82675839 124.86157858 142.84679645 C129.51822583 142.85850579 134.17355929 142.88591954 138.82978439 142.95157051 C143.21816933 143.01294018 147.60470736 143.03144968 151.99348068 143.01796913 C153.59871482 143.02043288 155.20401457 143.03817406 156.80887604 143.07284927 C164.68198183 143.23452713 170.56229665 143.2146548 176.72232056 137.62364197 C177.44303553 136.83235366 178.1637505 136.04106535 178.90630531 135.22579861 C181.08670375 132.90782559 183.21541592 131.51040294 186 130 C186 132 186 132 184.49609375 133.515625 C183.81675781 134.08796875 183.13742187 134.6603125 182.4375 135.25 C181.77621094 135.81203125 181.11492187 136.3740625 180.43359375 136.953125 C179.63050781 137.62859375 178.82742188 138.3040625 178 139 C177.60759345 139.49118631 177.2151869 139.98237263 176.81088924 140.48844337 C174.01321757 143.60777701 171.80745251 144.86923472 167.6319294 145.54545212 C163.24614799 145.74018673 158.89611852 145.74278808 154.50805664 145.68115234 C152.82231711 145.67945863 151.13657315 145.68041238 149.45083618 145.68380737 C144.88695644 145.68552567 140.32402694 145.65030309 135.76036763 145.60836363 C130.98648884 145.57080164 126.21258714 145.56732696 121.43858337 145.56021118 C112.40399362 145.54157838 103.36984059 145.49236259 94.33544296 145.43211424 C84.04775098 145.36500034 73.76003791 145.33204783 63.47218144 145.30194163 C42.31448988 145.23926199 21.15739685 145.12924899 0 145 C0 127.51 0 110.02 0 92 C11.88 92.11794922 11.88 92.11794922 24 92.23828125 C29.02233705 92.25910531 34.04410258 92.27609567 39.06640625 92.27929688 C47.03591374 92.28474127 55.0031767 92.30424481 62.97216797 92.40795898 C69.39843115 92.49070678 75.82206099 92.5099946 82.2487793 92.48558617 C84.69844744 92.48737596 87.1482094 92.51190236 89.59741211 92.55968666 C101.69258766 93.38912155 101.69258766 93.38912155 112.78991699 89.7354393 C115.97393239 86.29470504 117.46153319 82.40522525 119 78 C119.92632507 76.27410098 120.87888324 74.56158144 121.875 72.875 C122.92229153 70.919669 123.96292005 68.96076619 125 67 C125.4007373 66.24750977 125.80147461 65.49501953 126.21435547 64.71972656 C127.58367681 62.14820773 128.94879185 59.5744996 130.3125 57 C130.75770996 56.16194824 131.20291992 55.32389648 131.66162109 54.46044922 C132.07879395 53.66912598 132.4959668 52.87780273 132.92578125 52.0625 C133.48906128 50.99708984 133.48906128 50.99708984 134.0637207 49.91015625 C135.11985143 47.86309953 135.11985143 47.86309953 136 45 C91.12 45 46.24 45 0 45 C0 30.15 0 15.3 0 0 Z "
        fill="#8A8987" transform="translate(188,153)" />
    <path
        d="M0 0 C0.33 0.66 0.66 1.32 1 2 C1.66 2.33 2.32 2.66 3 3 C3.66 3.99 4.32 4.98 5 6 C4.67 6.33 4.34 6.66 4 7 C3.87619162 9.05478453 3.82201797 11.1137896 3.79467773 13.17211914 C3.78477814 13.81600082 3.77487854 14.45988251 3.76467896 15.12327576 C3.73298472 17.26053131 3.70827551 19.39780913 3.68359375 21.53515625 C3.66303104 23.01346936 3.64203476 24.49177649 3.62062073 25.97007751 C3.56532941 29.86792171 3.51595143 33.76581958 3.46777344 37.66375732 C3.41760981 41.63851723 3.36189699 45.61319884 3.30664062 49.58789062 C3.19897276 57.39186085 3.09754713 65.19589602 3 73 C2.67 73 2.34 73 2 73 C2 50.89 2 28.78 2 6 C-92.71 6 -187.42 6 -285 6 C-279.29786208 12.51672906 -273.73007564 18.68956351 -267.1875 24.3125 C-266.56349997 24.87030466 -265.93949993 25.42810932 -265.29659081 26.00281715 C-263.72680483 27.36794916 -262.10481057 28.67468386 -260.44347572 29.92679405 C-255.5641548 34.00179601 -252.52814026 37.33329078 -251.89167476 43.85689092 C-251.7213004 47.79736695 -251.77656221 51.71677121 -251.86474609 55.65869141 C-251.86757075 57.43354125 -251.86597585 59.20840276 -251.86032104 60.98324585 C-251.85746387 65.77692648 -251.91604995 70.56808028 -251.98606062 75.36117601 C-252.04878086 80.37919158 -252.05446404 85.39727184 -252.0663147 90.4156189 C-252.09733596 99.90732094 -252.17931388 109.39786451 -252.27980959 118.88905752 C-252.39177285 129.69907677 -252.44661322 140.50915278 -252.49676394 151.31960797 C-252.60115337 173.5470507 -252.77692646 195.77345223 -253 218 C-253.33 218 -253.66 218 -254 218 C-254.00238835 217.0802473 -254.00477671 216.16049459 -254.00723743 215.2128706 C-254.06631934 192.85494854 -254.14182552 170.49713489 -254.23571491 148.13933086 C-254.28072078 137.32735352 -254.32012432 126.51540947 -254.34643555 115.70336914 C-254.3693769 106.28190488 -254.40273143 96.86054556 -254.44870156 87.43916446 C-254.47268604 82.44851379 -254.4913805 77.45796739 -254.49761391 72.46726036 C-254.50364122 67.77311219 -254.52355521 63.07923097 -254.55427551 58.38518143 C-254.56309366 56.6594115 -254.56677056 54.93360673 -254.56500816 53.20781517 C-254.56336499 50.8569968 -254.57997152 48.50700159 -254.60127258 46.15629578 C-254.60588155 44.8390536 -254.61049051 43.52181143 -254.61523914 42.16465282 C-254.73869982 39.04583934 -254.73869982 39.04583934 -256.35695171 37.09570026 C-258.50069605 35.66610062 -260.46872721 35.34206389 -263 35 C-262.34 34.34 -261.68 33.68 -261 33 C-261.77923828 32.32904297 -261.77923828 32.32904297 -262.57421875 31.64453125 C-266.52821919 28.21675638 -270.29892184 24.70107816 -274 21 C-275.010625 20.175 -276.02125 19.35 -277.0625 18.5 C-279.80236534 16.16819971 -281.82689536 13.84751643 -284 11 C-284.5775 10.484375 -285.155 9.96875 -285.75 9.4375 C-287 8 -287 8 -287 4 C-269.79701272 2.72671481 -252.58528031 2.88122977 -235.34802246 2.93133545 C-231.40129128 2.94169729 -227.45455347 2.94616549 -223.5078125 2.95117188 C-216.61001065 2.9606491 -209.71223815 2.97508525 -202.81445312 2.99327087 C-199.44100052 3.00133652 -196.0686152 2.99297241 -192.6953125 2.96484375 C-176.77524627 2.8715991 -160.90545751 3.36439026 -145 4 C-144.67 3.34 -144.34 2.68 -144 2 C-144 2.66 -144 3.32 -144 4 C-142.83694336 3.83544815 -141.67388672 3.6708963 -140.47558594 3.50135803 C-136.42381503 2.99741903 -132.47741739 2.91441535 -128.390625 2.97827148 C-127.3208567 2.9926828 -127.3208567 2.9926828 -126.22947693 3.00738525 C-123.90287262 3.04002148 -121.5764776 3.08048489 -119.25 3.12109375 C-117.62476307 3.14542959 -115.99951867 3.16927134 -114.37426758 3.19264221 C-110.11964337 3.25513881 -105.86515322 3.32430084 -101.61065674 3.39489746 C-97.26003059 3.46589405 -92.90931023 3.53052282 -88.55859375 3.59570312 C-80.03895809 3.72427097 -71.51945359 3.85988748 -63 4 C-62.67 3.34 -62.34 2.68 -62 2 C-61.01 2.495 -61.01 2.495 -60 3 C-58.12080452 3.09110781 -56.23833208 3.11752837 -54.35693359 3.11352539 C-53.17586029 3.11344986 -51.99478699 3.11337433 -50.77792358 3.11329651 C-48.85757797 3.10555458 -48.85757797 3.10555458 -46.8984375 3.09765625 C-45.59170074 3.0962413 -44.28496399 3.09482635 -42.93862915 3.09336853 C-39.46323742 3.08954894 -35.98788743 3.07972342 -32.51251221 3.06866455 C-28.96668055 3.05843843 -25.42084215 3.05386833 -21.875 3.04882812 C-14.91664951 3.03810066 -7.95832676 3.02103092 -1 3 C-0.67 2.01 -0.34 1.02 0 0 Z "
        fill="#797876" transform="translate(383,98)" />
    <path
        d="M0 0 C1.65 0 3.3 0 5 0 C6.15046873 24.43637324 5.59830403 48.4695349 5 73 C-132.115 73.495 -132.115 73.495 -272 74 C-272.66 72.68 -273.32 71.36 -274 70 C-272.948125 69.01 -272.948125 69.01 -271.875 68 C-268.50583305 64.65014059 -265.77531275 60.84347436 -263 57 C-263 60 -263 60 -270 70 C-179.58 70.33 -89.16 70.66 4 71 C4 48.56 4 26.12 4 3 C0.19149425 5.28510345 -2.09140717 6.87595585 -5 10 C-5.66 9.67 -6.32 9.34 -7 9 C-6.24203125 8.27683594 -6.24203125 8.27683594 -5.46875 7.5390625 C-4.8190625 6.90742188 -4.169375 6.27578125 -3.5 5.625 C-2.8503125 4.99851562 -2.200625 4.37203125 -1.53125 3.7265625 C0.22117431 2.13524093 0.22117431 2.13524093 0 0 Z "
        fill="#787776" transform="translate(381,273)" />
    <path
        d="M0 0 C6.6 0 13.2 0 20 0 C21.2128389 3.63851669 21.23081838 7.0505491 21.31640625 10.84375 C21.33718735 11.60925171 21.35796844 12.37475342 21.37937927 13.16345215 C21.44470258 15.60887775 21.50363095 18.05441138 21.5625 20.5 C21.60570967 22.14714623 21.64932474 23.79428187 21.69335938 25.44140625 C22 37.10430076 22 37.10430076 22 41 C22.00163651 42.17678314 22.00327301 43.35356628 22.00495911 44.56600952 C22.05014529 77.43834132 21.96299794 110.30996789 21.76428032 143.18167496 C21.71906632 150.70329789 21.67951327 158.22486564 21.65356445 165.74658203 C21.63040265 172.4595505 21.59690022 179.17237647 21.55129844 185.88523138 C21.52779549 189.39016819 21.50878595 192.89496918 21.50238609 196.39998245 C21.44932472 217.53790223 20.28847724 237.71391561 14 258 C13.75813965 258.78165527 13.5162793 259.56331055 13.26708984 260.36865234 C12.48395018 262.87557427 11.68393501 265.37628963 10.875 267.875 C10.62129639 268.66737061 10.36759277 269.45974121 10.10620117 270.27612305 C8.23690256 275.88154872 8.23690256 275.88154872 6 277 C5.71125 277.886875 5.4225 278.77375 5.125 279.6875 C3.90678511 283.27446606 2.19291351 285.92992109 0 289 C-0.33 288.34 -0.66 287.68 -1 287 C-0.27490234 285.09912109 -0.27490234 285.09912109 0.9140625 282.7734375 C1.34323975 281.91435791 1.77241699 281.05527832 2.21459961 280.17016602 C2.68003174 279.24776123 3.14546387 278.32535645 3.625 277.375 C12.89090711 258.45824717 18.13376938 238.54455216 18.15821838 217.4138031 C18.16315636 216.49139755 18.16809434 215.568992 18.17318195 214.61863476 C18.18844816 211.55101535 18.19688784 208.48341669 18.20532227 205.41577148 C18.21490936 203.20757365 18.22491992 200.99937762 18.23532104 198.79118347 C18.26228613 192.81257983 18.28334102 186.83396837 18.30332303 180.85533786 C18.32523454 174.60130317 18.3525979 168.34729237 18.37937927 162.09327698 C18.42357523 151.60150207 18.46442211 141.10971793 18.50268555 130.61791992 C18.54209341 119.81485029 18.58353217 109.01179156 18.62768555 98.20874023 C18.63040982 97.54201774 18.63313409 96.87529524 18.63594092 96.18836903 C18.64962127 92.84337264 18.66334354 89.49837643 18.67708123 86.15338027 C18.79079416 58.43560908 18.89746257 30.7178146 19 3 C12.73 2.34 6.46 1.68 0 1 C0 0.67 0 0.34 0 0 Z "
        fill="#555455" transform="translate(446,65)" />
    <path
        d="M0 0 C6.27 0 12.54 0 19 0 C19 0.33 19 0.66 19 1 C18.09636719 1.06058594 17.19273437 1.12117187 16.26171875 1.18359375 C14.49248047 1.30927734 14.49248047 1.30927734 12.6875 1.4375 C11.51574219 1.51871094 10.34398437 1.59992188 9.13671875 1.68359375 C5.97409042 1.8867371 5.97409042 1.8867371 3 3 C2.83185938 8.72898164 2.67135687 14.45810828 2.51782227 20.1875 C2.46456623 22.1351492 2.4092506 24.08274325 2.35180664 26.03027344 C2.26943621 28.83516552 2.19455858 31.64017474 2.12109375 34.4453125 C2.09405869 35.31116974 2.06702362 36.17702698 2.03916931 37.06912231 C2.01907303 37.88951996 1.99897675 38.7099176 1.97827148 39.55517578 C1.95828598 40.27021271 1.93830048 40.98524963 1.91770935 41.72195435 C2.01939399 44.53688225 2.51980917 47.22706878 3 50 C24.73155786 50.21046704 46.46294709 50.36905946 68.19531822 50.46630955 C78.28664646 50.51266979 88.37734057 50.57584719 98.46826172 50.67895508 C107.26603842 50.76880672 116.06335578 50.82675839 124.86157858 50.84679645 C129.51822583 50.85850579 134.17355929 50.88591954 138.82978439 50.95157051 C143.21816933 51.01294018 147.60470736 51.03144968 151.99348068 51.01796913 C153.59871482 51.02043288 155.20401457 51.03817406 156.80887604 51.07284927 C164.68198183 51.23452713 170.56229665 51.2146548 176.72232056 45.62364197 C177.44303553 44.83235366 178.1637505 44.04106535 178.90630531 43.22579861 C181.08670375 40.90782559 183.21541592 39.51040294 186 38 C186 40 186 40 184.49609375 41.515625 C183.81675781 42.08796875 183.13742187 42.6603125 182.4375 43.25 C181.77621094 43.81203125 181.11492187 44.3740625 180.43359375 44.953125 C179.63050781 45.62859375 178.82742188 46.3040625 178 47 C177.41139018 47.73677947 177.41139018 47.73677947 176.81088924 48.48844337 C174.01321757 51.60777701 171.80745251 52.86923472 167.6319294 53.54545212 C163.24614799 53.74018673 158.89611852 53.74278808 154.50805664 53.68115234 C152.82231711 53.67945863 151.13657315 53.68041238 149.45083618 53.68380737 C144.88695644 53.68552567 140.32402694 53.65030309 135.76036763 53.60836363 C130.98648884 53.57080164 126.21258714 53.56732696 121.43858337 53.56021118 C112.40399362 53.54157838 103.36984059 53.49236259 94.33544296 53.43211424 C84.04775098 53.36500034 73.76003791 53.33204783 63.47218144 53.30194163 C42.31448988 53.23926199 21.15739685 53.12924899 0 53 C0 35.51 0 18.02 0 0 Z "
        fill="#575553" transform="translate(188,245)" />
    <path
        d="M0 0 C0.33 0.66 0.66 1.32 1 2 C1.99 2.495 1.99 2.495 3 3 C3.99 4.485 3.99 4.485 5 6 C4.67 6.33 4.34 6.66 4 7 C3.87619162 9.05478453 3.82201797 11.1137896 3.79467773 13.17211914 C3.78477814 13.81600082 3.77487854 14.45988251 3.76467896 15.12327576 C3.73298472 17.26053131 3.70827551 19.39780913 3.68359375 21.53515625 C3.66303104 23.01346936 3.64203476 24.49177649 3.62062073 25.97007751 C3.56532941 29.86792171 3.51595143 33.76581958 3.46777344 37.66375732 C3.41760981 41.63851723 3.36189699 45.61319884 3.30664062 49.58789062 C3.19897276 57.39186085 3.09754713 65.19589602 3 73 C2.67 73 2.34 73 2 73 C2 50.89 2 28.78 2 6 C-60.7 6 -123.4 6 -188 6 C-188 5.67 -188 5.34 -188 5 C-183.71 5 -179.42 5 -175 5 C-174.67 4.34 -174.34 3.68 -174 3 C-164.43 3.33 -154.86 3.66 -145 4 C-144.67 3.34 -144.34 2.68 -144 2 C-144 2.66 -144 3.32 -144 4 C-142.83694336 3.83544815 -141.67388672 3.6708963 -140.47558594 3.50135803 C-136.42381503 2.99741903 -132.47741739 2.91441535 -128.390625 2.97827148 C-127.3208567 2.9926828 -127.3208567 2.9926828 -126.22947693 3.00738525 C-123.90287262 3.04002148 -121.5764776 3.08048489 -119.25 3.12109375 C-117.62476307 3.14542959 -115.99951867 3.16927134 -114.37426758 3.19264221 C-110.11964337 3.25513881 -105.86515322 3.32430084 -101.61065674 3.39489746 C-97.26003059 3.46589405 -92.90931023 3.53052282 -88.55859375 3.59570312 C-80.03895809 3.72427097 -71.51945359 3.85988748 -63 4 C-62.67 3.34 -62.34 2.68 -62 2 C-61.01 2.495 -61.01 2.495 -60 3 C-58.12080452 3.09110781 -56.23833208 3.11752837 -54.35693359 3.11352539 C-53.17586029 3.11344986 -51.99478699 3.11337433 -50.77792358 3.11329651 C-48.85757797 3.10555458 -48.85757797 3.10555458 -46.8984375 3.09765625 C-45.59170074 3.0962413 -44.28496399 3.09482635 -42.93862915 3.09336853 C-39.46323742 3.08954894 -35.98788743 3.07972342 -32.51251221 3.06866455 C-28.96668055 3.05843843 -25.42084215 3.05386833 -21.875 3.04882812 C-14.91664951 3.03810066 -7.95832676 3.02103092 -1 3 C-0.67 2.01 -0.34 1.02 0 0 Z "
        fill="#61615F" transform="translate(383,98)" />
    <path
        d="M0 0 C59.07 0 118.14 0 179 0 C179.33 0.99 179.66 1.98 180 3 C179.01 2.67 178.02 2.34 177 2 C174.65425844 1.89567238 172.3056271 1.85347999 169.95759583 1.84178162 C169.23632734 1.83684364 168.51505885 1.83190566 167.77193373 1.82681805 C165.34901611 1.81142919 162.92612502 1.80307868 160.50317383 1.79467773 C158.76876084 1.7851003 157.0343502 1.7750903 155.29994202 1.76467896 C150.58540894 1.73760923 145.87086584 1.71661085 141.15629792 1.69667697 C136.23151455 1.67483018 131.30676217 1.6474351 126.38200378 1.62062073 C117.05355485 1.57067616 107.72508873 1.52574387 98.39660615 1.48259836 C87.77761296 1.43324106 77.15865087 1.37831735 66.53968775 1.32291877 C44.69315273 1.20907164 22.84658917 1.10297342 1 1 C1 14.53 1 28.06 1 42 C45.88 42 90.76 42 137 42 C137 42.33 137 42.66 137 43 C91.79 43 46.58 43 0 43 C0 28.81 0 14.62 0 0 Z "
        fill="#272728" transform="translate(189,154)" />
    <path
        d="M0 0 C0 3 0 3 -7 13 C127.145 13.495 127.145 13.495 264 14 C264 14.33 264 14.66 264 15 C229.52726715 15.12745886 195.05453409 15.25485967 160.58180074 15.38218227 C156.51490166 15.39720312 152.44800259 15.41222446 148.38110352 15.42724609 C147.16659901 15.43173202 147.16659901 15.43173202 145.92755906 15.43630856 C132.8057702 15.48477666 119.68398148 15.53328385 106.56219282 15.58180541 C93.10486081 15.63156687 79.64752864 15.6812865 66.19019634 15.73096704 C57.88175907 15.7616407 49.57332192 15.79234724 41.26488493 15.82309544 C35.57275366 15.84415799 29.88062225 15.86518003 24.18849071 15.88616979 C20.90111139 15.89829323 17.61373217 15.91044092 14.32635307 15.92262459 C10.76722609 15.93581261 7.20809886 15.94893317 3.64897156 15.96203613 C2.60326309 15.96592708 1.55755463 15.96981803 0.48015803 15.97382689 C-0.46981532 15.97731028 -1.41978866 15.98079368 -2.39854908 15.98438263 C-3.22064359 15.98742039 -4.04273811 15.99045815 -4.88974458 15.99358797 C-6.59315653 15.9987638 -8.29658019 16 -10 16 C-10.33 15.01 -10.66 14.02 -11 13 C-10.29875 12.34 -9.5975 11.68 -8.875 11 C-5.50583305 7.65014059 -2.77531275 3.84347436 0 0 Z "
        fill="#5D5C5A" transform="translate(118,330)" />
    <path
        d="M0 0 C1.98 0 3.96 0 6 0 C6.02338803 25.08720798 6.04100816 50.17441432 6.05181217 75.26163101 C6.05696259 86.91075251 6.06398136 98.55986723 6.07543945 110.20898438 C6.08542464 120.36550455 6.09186255 130.52201981 6.09408849 140.67854476 C6.09538909 146.05344613 6.09843365 151.42833344 6.10573006 156.80323029 C6.11255082 161.86910132 6.1146047 166.9349526 6.11310768 172.00082779 C6.1133813 173.85345441 6.11535032 175.70608174 6.11920547 177.55870438 C6.14656349 191.39203207 5.9330916 204.4013896 1.875 217.75 C1.5658667 218.78624512 1.2567334 219.82249023 0.93823242 220.89013672 C-2.43406591 231.88783683 -6.38334623 242.51468806 -13 252 C-13.33 251.34 -13.66 250.68 -14 250 C-12.83951487 247.46012686 -11.6210143 245.02455813 -10.3125 242.5625 C5.48132446 211.75976456 4.29782602 178.24493281 4.16985631 144.48795986 C4.15343245 139.50819889 4.14949819 134.52842819 4.14439392 129.54864502 C4.13309711 120.15233714 4.1124196 110.75607847 4.08749622 101.35979772 C4.04282234 84.47967311 4.0099934 67.59952968 3.98725218 50.71936154 C3.97884438 44.80062799 3.96482393 38.88194174 3.94627964 32.96323156 C3.93567081 29.30083141 3.92906636 25.63843173 3.92347908 21.97602081 C3.91999772 20.27397718 3.91477197 18.57193612 3.90771103 16.86990356 C3.8983152 14.55523951 3.89499041 12.24064489 3.89320374 9.92596436 C3.88968431 8.62900005 3.88616488 7.33203575 3.8825388 5.9957695 C4 3 4 3 5 1 C3.35 1 1.7 1 0 1 C0 0.67 0 0.34 0 0 Z "
        fill="#9E9F9D" transform="translate(433,91)" />
    <path
        d="M0 0 C2.80073245 1.37136629 5.52334601 2.862577 8.25 4.375 C46.0175148 24.74821191 87.37533751 36.4599045 129 46 C129 46.33 129 46.66 129 47 C122.8931592 47.33325189 117.68627039 46.09683692 111.8125 44.5 C110.04933217 44.02692379 108.28504128 43.55800883 106.51953125 43.09375 C105.74714111 42.88427734 104.97475098 42.67480469 104.17895508 42.45898438 C101.7187776 41.86258601 101.7187776 41.86258601 98 42 C98 41.34 98 40.68 98 40 C95.03 39.67 92.06 39.34 89 39 C89 39.66 89 40.32 89 41 C88.34 41 87.68 41 87 41 C87 39.68 87 38.36 87 37 C86.07380859 36.81824219 86.07380859 36.81824219 85.12890625 36.6328125 C83.34407359 36.27964926 81.56028529 35.92118354 79.77734375 35.55859375 C78.10597289 35.22243899 76.43203551 34.89826027 74.75390625 34.59765625 C69.1136716 33.51100554 64.14265662 31.45190669 58.87890625 29.1796875 C55.2564275 27.69530679 51.84770124 26.71253727 48 26 C47.34 26.33 46.68 26.66 46 27 C45.505 25.515 45.505 25.515 45 24 C42.7609603 22.64845497 42.7609603 22.64845497 39.9765625 21.51953125 C38.955625 21.07802734 37.9346875 20.63652344 36.8828125 20.18164062 C35.80773437 19.72982422 34.73265625 19.27800781 33.625 18.8125 C32.02398437 18.11737305 32.02398437 18.11737305 30.390625 17.40820312 C24.8841951 14.87058017 24.8841951 14.87058017 19 14 C17 12 17 12 16 10 C15.175 9.731875 14.35 9.46375 13.5 9.1875 C9.70977364 7.90153034 6.6387758 6.11589381 3.24609375 4.0234375 C0.66039014 2.84525603 -1.19016386 2.81234838 -4 3 C-4 2.34 -4 1.68 -4 1 C-5.57201172 1.88365234 -5.57201172 1.88365234 -7.17578125 2.78515625 C-8.55439557 3.54480087 -9.93331798 4.30388656 -11.3125 5.0625 C-12.00279297 5.45244141 -12.69308594 5.84238281 -13.40429688 6.24414062 C-15.22925688 7.24037483 -17.11273877 8.12752842 -19 9 C-19.99 8.67 -20.98 8.34 -22 8 C-19.28348686 6.45570235 -16.55013724 4.94398394 -13.8125 3.4375 C-13.04357422 2.99986328 -12.27464844 2.56222656 -11.48242188 2.11132812 C-4.26956074 -1.82014554 -4.26956074 -1.82014554 0 0 Z "
        fill="#5C5C5C" transform="translate(259,37)" />
    <path
        d="M0 0 C0.495 0.99 0.495 0.99 1 2 C1.66 2.33 2.32 2.66 3 3 C3.99 4.485 3.99 4.485 5 6 C4.67 6.33 4.34 6.66 4 7 C3.87619162 9.05478453 3.82201797 11.1137896 3.79467773 13.17211914 C3.78477814 13.81600082 3.77487854 14.45988251 3.76467896 15.12327576 C3.73298472 17.26053131 3.70827551 19.39780913 3.68359375 21.53515625 C3.66303104 23.01346936 3.64203476 24.49177649 3.62062073 25.97007751 C3.56532941 29.86792171 3.51595143 33.76581958 3.46777344 37.66375732 C3.41760981 41.63851723 3.36189699 45.61319884 3.30664062 49.58789062 C3.19897276 57.39186085 3.09754713 65.19589602 3 73 C2.67 73 2.34 73 2 73 C2 50.89 2 28.78 2 6 C-8.56 6 -19.12 6 -30 6 C-35.67554578 5.87184251 -41.33091211 5.73254573 -47 5.5 C-48.28648437 5.45230469 -49.57296875 5.40460938 -50.8984375 5.35546875 C-53.93253807 5.24225604 -56.96632436 5.123985 -60 5 C-60 4.67 -60 4.34 -60 4 C-40.33037167 3.38578355 -20.68197058 2.81624716 -1 3 C-0.67 2.01 -0.34 1.02 0 0 Z "
        fill="#787776" transform="translate(383,98)" />
    <path
        d="M0 0 C0.33 0 0.66 0 1 0 C1 33.99 1 67.98 1 103 C0.67 103 0.34 103 0 103 C-0.97646811 95.23421625 -1.11766195 87.58536633 -1.0625 79.765625 C-1.05871338 78.52882996 -1.05492676 77.29203491 -1.05102539 76.01776123 C-1.03888545 72.0951374 -1.02025185 68.17258982 -1 64.25 C-0.97338841 59.06771031 -0.95341568 53.88545733 -0.9375 48.703125 C-0.92920166 47.51865784 -0.92090332 46.33419067 -0.91235352 45.11383057 C-0.90905029 44.00537781 -0.90574707 42.89692505 -0.90234375 41.75488281 C-0.89710693 40.78576965 -0.89187012 39.81665649 -0.88647461 38.81817627 C-0.94431276 35.92424352 -0.94431276 35.92424352 -1.53344727 32.80511475 C-2.0742855 29.5533638 -1.54444034 27.25529956 -1 24 C-0.89398119 20.06184293 -0.95128099 16.12643233 -1 12.1875 C-1.02537697 10.09770648 -1.04645481 8.00785475 -1.0625 5.91796875 C-1.07410156 4.99781982 -1.08570313 4.0776709 -1.09765625 3.12963867 C-1 1 -1 1 0 0 Z "
        fill="#636060" transform="translate(39,173)" />
    <path
        d="M0 0 C2.8007215 1.37136092 5.5236841 2.86197205 8.25 4.375 C21.38472509 11.49040575 35.11529672 17.49986996 49 23 C46.38519907 23.98873237 45.18493496 24.05908666 42.48217773 23.19555664 C41.55864502 22.77137451 40.6351123 22.34719238 39.68359375 21.91015625 C38.67232422 21.45576172 37.66105469 21.00136719 36.61914062 20.53320312 C35.04422852 19.80520508 35.04422852 19.80520508 33.4375 19.0625 C31.35505705 18.11107194 29.27050979 17.16423228 27.18359375 16.22265625 C25.79998657 15.58469116 25.79998657 15.58469116 24.38842773 14.93383789 C21.96174408 13.81792956 21.96174408 13.81792956 19 14 C17 12 17 12 16 10 C15.175 9.731875 14.35 9.46375 13.5 9.1875 C9.70977364 7.90153034 6.6387758 6.11589381 3.24609375 4.0234375 C0.66039014 2.84525603 -1.19016386 2.81234838 -4 3 C-4 2.34 -4 1.68 -4 1 C-5.57201172 1.88365234 -5.57201172 1.88365234 -7.17578125 2.78515625 C-8.55439557 3.54480087 -9.93331798 4.30388656 -11.3125 5.0625 C-12.00279297 5.45244141 -12.69308594 5.84238281 -13.40429688 6.24414062 C-15.22925688 7.24037483 -17.11273877 8.12752842 -19 9 C-19.99 8.67 -20.98 8.34 -22 8 C-19.28348686 6.45570235 -16.55013724 4.94398394 -13.8125 3.4375 C-13.04357422 2.99986328 -12.27464844 2.56222656 -11.48242188 2.11132812 C-4.26956074 -1.82014554 -4.26956074 -1.82014554 0 0 Z "
        fill="#696867" transform="translate(259,37)" />
    <path
        d="M0 0 C6.27 0 12.54 0 19 0 C19 0.33 19 0.66 19 1 C18.09636719 1.06058594 17.19273437 1.12117187 16.26171875 1.18359375 C14.49248047 1.30927734 14.49248047 1.30927734 12.6875 1.4375 C11.51574219 1.51871094 10.34398437 1.59992188 9.13671875 1.68359375 C5.97409042 1.8867371 5.97409042 1.8867371 3 3 C2.97494385 4.12905762 2.9498877 5.25811523 2.92407227 6.42138672 C2.82915741 10.65211319 2.72914992 14.88270721 2.62768555 19.11328125 C2.58465185 20.93649168 2.542958 22.7597343 2.50268555 24.58300781 C2.44420915 27.21949928 2.3807475 29.85583338 2.31640625 32.4921875 C2.29969376 33.29365204 2.28298126 34.09511658 2.26576233 34.92086792 C2.11928242 40.64967073 1.63795958 46.30567037 1 52 C0.67 52 0.34 52 0 52 C0 34.84 0 17.68 0 0 Z "
        fill="#605F5E" transform="translate(188,245)" />
    <path
        d="M0 0 C0.33 0 0.66 0 1 0 C1.20235768 1.5815031 1.38569143 3.16543715 1.5625 4.75 C1.66691406 5.63171875 1.77132813 6.5134375 1.87890625 7.421875 C2.20119123 16.94487621 0.63537535 25.6700731 -2.125 34.75 C-2.4341333 35.78624512 -2.7432666 36.82249023 -3.06176758 37.89013672 C-6.43406591 48.88783683 -10.38334623 59.51468806 -17 69 C-17.33 68.34 -17.66 67.68 -18 67 C-16.83951487 64.46012686 -15.6210143 62.02455813 -14.3125 59.5625 C-4.52067419 40.46547757 -1.47236846 21.25357891 0 0 Z "
        fill="#626261" transform="translate(437,274)" />
    <path
        d="M0 0 C0.99 0.33 1.98 0.66 3 1 C3 1.66 3 2.32 3 3 C12.9 3 22.8 3 33 3 C33 3.33 33 3.66 33 4 C3.96 4 -25.08 4 -55 4 C-55 3.67 -55 3.34 -55 3 C-27.775 2.505 -27.775 2.505 0 2 C0 1.34 0 0.68 0 0 Z "
        fill="#3C3C3B" transform="translate(320,100)" />
    <path
        d="M0 0 C7.87720117 0.56282404 15.55216071 1.95865135 23.29248047 3.46917725 C36.15017888 5.97477035 49.01958739 8.22143385 62 10 C62 10.33 62 10.66 62 11 C41.12553498 10.66770027 20.06234548 6.65536983 0 1 C0 0.67 0 0.34 0 0 Z "
        fill="#676766" transform="translate(383,54)" />
    <path
        d="M0 0 C0.55719727 0.15847412 1.11439453 0.31694824 1.68847656 0.48022461 C4.15877011 1.03570147 6.45553604 1.208468 8.984375 1.31640625 C10.38623047 1.37924805 10.38623047 1.37924805 11.81640625 1.44335938 C12.78449219 1.48267578 13.75257813 1.52199219 14.75 1.5625 C15.73355469 1.60568359 16.71710938 1.64886719 17.73046875 1.69335938 C20.15351275 1.79922052 22.5766554 1.90130171 25 2 C25 2.33 25 2.66 25 3 C15.03560785 3.95788619 5.18316073 4.12238132 -4.8125 4.0625 C-6.29492034 4.05746824 -7.77734236 4.05290834 -9.25976562 4.04882812 C-12.8398795 4.0379707 -16.41992843 4.02080135 -20 4 C-20 3.67 -20 3.34 -20 3 C-16.37 3 -12.74 3 -9 3 C-9 2.34 -9 1.68 -9 1 C-6.03 1 -3.06 1 0 1 C0 0.67 0 0.34 0 0 Z "
        fill="#5B5A59" transform="translate(183,100)" />
    <path
        d="M0 0 C4.75208626 1.37107021 8.47716221 3.38631894 12.625 6.0625 C17.52842976 9.22724702 17.52842976 9.22724702 23 11 C25.02456848 12.29572383 27.02678947 13.6273318 29 15 C29.66 15.33 30.32 15.66 31 16 C32.21792984 16.8404267 33.42539465 17.69611836 34.625 18.5625 C35.25664062 19.01753906 35.88828125 19.47257812 36.5390625 19.94140625 C37.02117187 20.29074219 37.50328125 20.64007813 38 21 C37.01 21.495 37.01 21.495 36 22 C33.65258789 20.93945312 33.65258789 20.93945312 30.72265625 19.28125 C29.65080078 18.67796875 28.57894531 18.0746875 27.47460938 17.453125 C26.34861328 16.80859375 25.22261719 16.1640625 24.0625 15.5 C22.97130859 14.88640625 21.88011719 14.2728125 20.75585938 13.640625 C6.56945936 5.60644724 6.56945936 5.60644724 0 1 C0 0.67 0 0.34 0 0 Z "
        fill="#555454" transform="translate(191,434)" />
    <path
        d="M0 0 C3.71268094 1.54127351 5.98115698 3.80843234 8.75 6.6875 C12.38389465 10.40131902 16.09280644 13.88726714 20.0390625 17.26171875 C23.5177298 20.34539793 26.75322563 23.67551028 30 27 C29.67 27.66 29.34 28.32 29 29 C28.34 28.34 27.68 27.68 27 27 C24.42938689 26.35232207 24.42938689 26.35232207 22 26 C22.66 25.34 23.32 24.68 24 24 C23.22076172 23.32904297 23.22076172 23.32904297 22.42578125 22.64453125 C18.47178081 19.21675638 14.70107816 15.70107816 11 12 C10.01 11.21625 9.02 10.4325 8 9.625 C4.6140585 6.66230119 2.48672233 3.7300835 0 0 Z "
        fill="#686867" transform="translate(98,107)" />
    <path
        d="M0 0 C18.15 0 36.3 0 55 0 C55.495 1.485 55.495 1.485 56 3 C55.01 2.67 54.02 2.34 53 2 C51.26722838 1.88446109 49.53056879 1.82354865 47.79418945 1.79467773 C46.73331619 1.77473251 45.67244293 1.75478729 44.579422 1.73423767 C43.43559555 1.71752518 42.2917691 1.70081268 41.11328125 1.68359375 C39.94113571 1.66281265 38.76899017 1.64203156 37.56132507 1.62062073 C33.81177714 1.55516182 30.06215837 1.49625704 26.3125 1.4375 C23.77277909 1.39431132 21.23306538 1.35069692 18.69335938 1.30664062 C12.46231478 1.19948414 6.23119949 1.0977108 0 1 C0 0.67 0 0.34 0 0 Z "
        fill="#1C1D1E" transform="translate(313,154)" />
    <path
        d="M0 0 C3.90285767 1.58667578 6.33520982 4.13350481 9.25 7.125 C10.14203125 8.03507813 11.0340625 8.94515625 11.953125 9.8828125 C12.62859375 10.58148438 13.3040625 11.28015625 14 12 C13.67 12.66 13.34 13.32 13 14 C8.280381 12.00727198 6.48361033 10.40276377 4 6 C2.68252676 5.30251417 1.35085807 4.63040043 0 4 C-0.33 3.01 -0.66 2.02 -1 1 C-0.67 0.67 -0.34 0.34 0 0 Z "
        fill="#414040" transform="translate(369,157)" />
    <path
        d="M0 0 C0 0.33 0 0.66 0 1 C-10.16437295 1.85803148 -19.82382142 2.03351814 -30 1 C-30 0.67 -30 0.34 -30 0 C-19.82382142 -1.03351814 -10.16437295 -0.85803148 0 0 Z "
        fill="#6F6F6C" transform="translate(174,102)" />
    <path
        d="M0 0 C0.33 0.66 0.66 1.32 1 2 C1.66 2.33 2.32 2.66 3 3 C3.99 4.485 3.99 4.485 5 6 C2.37684968 7.31157516 0.76966564 6.89649988 -2.125 6.5625 C-3.03507812 6.46066406 -3.94515625 6.35882813 -4.8828125 6.25390625 C-5.58148438 6.17011719 -6.28015625 6.08632812 -7 6 C-6.38125 5.71125 -5.7625 5.4225 -5.125 5.125 C-2.58408581 3.77981013 -1.28874849 2.57749699 0 0 Z "
        fill="#353534" transform="translate(383,98)" />
    <path
        d="M0 0 C5.94 0 11.88 0 18 0 C18.33 0.99 18.66 1.98 19 3 C18.01 2.67 17.02 2.34 16 2 C13.26710707 1.77202438 10.54957796 1.58331813 7.8125 1.4375 C7.06291016 1.39431641 6.31332031 1.35113281 5.54101562 1.30664062 C3.69421625 1.20077315 1.84713166 1.0999024 0 1 C0 0.67 0 0.34 0 0 Z "
        fill="#2A2B2E" transform="translate(350,154)" />
    <path
        d="M0 0 C0.99 0.33 1.98 0.66 3 1 C3 1.66 3 2.32 3 3 C-1.62 3 -6.24 3 -11 3 C-11 2.67 -11 2.34 -11 2 C-7.37 2 -3.74 2 0 2 C0 1.34 0 0.68 0 0 Z "
        fill="#3C3C3C" transform="translate(174,101)" />
    <path
        d="M0 0 C3.37462715 0.54723683 5.08235 1.0549 8 3 C7.67 3.66 7.34 4.32 7 5 C4.625 4.75 4.625 4.75 2 4 C0.6875 1.9375 0.6875 1.9375 0 0 Z "
        fill="#494847" transform="translate(254,36)" />
    <path
        d="M0 0 C0.33 0.99 0.66 1.98 1 3 C-0.32 3.33 -1.64 3.66 -3 4 C-2.67 3.34 -2.34 2.68 -2 2 C-1.34 2 -0.68 2 0 2 C0 1.34 0 0.68 0 0 Z "
        fill="#000000" transform="translate(404,405)" />
    <path d="M0 0 C0.99 0.33 1.98 0.66 3 1 C1.35 1.33 -0.3 1.66 -2 2 C-1.34 1.34 -0.68 0.68 0 0 Z "
        fill="#000000" transform="translate(150,79)" />
    <path d="M0 0 C0.66 0.66 1.32 1.32 2 2 C0.35 2 -1.3 2 -3 2 C-2.01 1.34 -1.02 0.68 0 0 Z "
        fill="#000000" transform="translate(442,61)" />
    <path d="M0 0 C1.65 0 3.3 0 5 0 C5 0.33 5 0.66 5 1 C3.35 1 1.7 1 0 1 C0 0.67 0 0.34 0 0 Z "
        fill="#111111" transform="translate(426,60)" />
    <path d="M0 0 C0.99 0.33 1.98 0.66 3 1 C2.01 1 1.02 1 0 1 C0 0.67 0 0.34 0 0 Z " fill="#000000"
        transform="translate(232,494)" />
    <path d="M0 0 C0.99 0.33 1.98 0.66 3 1 C2.01 1 1.02 1 0 1 C0 0.67 0 0.34 0 0 Z " fill="#000000"
        transform="translate(216,485)" />
    <path d="M0 0 C1.485 0.99 1.485 0.99 3 2 C2.01 2 1.02 2 0 2 C0 1.34 0 0.68 0 0 Z "
        fill="#000000" transform="translate(200,475)" />
    <path d="M0 0 C1.485 0.99 1.485 0.99 3 2 C2.01 2 1.02 2 0 2 C0 1.34 0 0.68 0 0 Z "
        fill="#000000" transform="translate(374,387)" />
    <path d="M0 0 C4 1 4 1 4 1 Z " fill="#000000" transform="translate(241,247)" />
    <path d="M0 0 C1 4 1 4 1 4 Z " fill="#000000" transform="translate(126,185)" />
    <path d="M0 0 C1 4 1 4 1 4 Z " fill="#000000" transform="translate(387,146)" />
    <path d="M0 0 C1 4 1 4 1 4 Z " fill="#000000" transform="translate(387,119)" />
    <path d="M0 0 C1 4 1 4 1 4 Z " fill="#000000" transform="translate(133,83)" />
    <path d="M0 0 C0.99 1.485 0.99 1.485 2 3 C1.34 3 0.68 3 0 3 C0 2.01 0 1.02 0 0 Z "
        fill="#000000" transform="translate(468,68)" />
    <path d="M0 0 C0.99 0.33 1.98 0.66 3 1 C2.01 1 1.02 1 0 1 C0 0.67 0 0.34 0 0 Z " fill="#000000"
        transform="translate(320,68)" />
    <path d="M0 0 C0.66 0 1.32 0 2 0 C1.67 0.99 1.34 1.98 1 3 C0.67 2.01 0.34 1.02 0 0 Z "
        fill="#000000" transform="translate(302,61)" />
    <path d="M0 0 C0.33 0.66 0.66 1.32 1 2 C0.34 1.67 -0.32 1.34 -1 1 C-0.67 0.67 -0.34 0.34 0 0 Z "
        fill="#000000" transform="translate(290,484)" />
    <path d="M0 0 C0.99 0.495 0.99 0.495 2 1 C1.01 1.495 1.01 1.495 0 2 C0 1.34 0 0.68 0 0 Z "
        fill="#000000" transform="translate(128,429)" />
    <path d="" fill="#000000" transform="translate(0,0)" />
    <path d="M0 0 C0.66 0 1.32 0 2 0 C1.67 0.66 1.34 1.32 1 2 C0.67 1.34 0.34 0.68 0 0 Z "
        fill="#000000" transform="translate(64,364)" />
    <path d="M0 0 C3 1 3 1 3 1 Z " fill="#000000" transform="translate(406,354)" />
    <path d="M0 0 C0.99 0.495 0.99 0.495 2 1 C1.01 1.495 1.01 1.495 0 2 C0 1.34 0 0.68 0 0 Z "
        fill="#000000" transform="translate(457,333)" />
    <path d="M0 0 C3 1 3 1 3 1 Z " fill="#000000" transform="translate(233,247)" />
    <path d="" fill="#000000" transform="translate(0,0)" />
    <path d="M0 0 C3 1 3 1 3 1 Z " fill="#000000" transform="translate(328,156)" />
    <path d="" fill="#000000" transform="translate(0,0)" />
    <path d="" fill="#000000" transform="translate(0,0)" />
    <path d="" fill="#000000" transform="translate(0,0)" />
    <path d="M0 0 C3 1 3 1 3 1 Z " fill="#000000" transform="translate(374,100)" />
    <path d="M0 0 C0.99 0.495 0.99 0.495 2 1 C1.01 1.495 1.01 1.495 0 2 C0 1.34 0 0.68 0 0 Z "
        fill="#000000" transform="translate(349,77)" />
    <path d="M0 0 C0.33 0.66 0.66 1.32 1 2 C0.34 1.67 -0.32 1.34 -1 1 C-0.67 0.67 -0.34 0.34 0 0 Z "
        fill="#000000" transform="translate(280,53)" />
    <path d="M0 0 C0.33 0.66 0.66 1.32 1 2 C0.34 1.67 -0.32 1.34 -1 1 C-0.67 0.67 -0.34 0.34 0 0 Z "
        fill="#000000" transform="translate(232,13)" />
    <path d="M0 0 C2 1 2 1 2 1 Z " fill="#000000" transform="translate(243,504)" />
    <path d="M0 0 C2 1 2 1 2 1 Z " fill="#000000" transform="translate(230,496)" />
    <path d="M0 0 C2 1 2 1 2 1 Z " fill="#000000" transform="translate(274,493)" />
    <path d="" fill="#000000" transform="translate(0,0)" />
    <path d="M0 0 C2 1 2 1 2 1 Z " fill="#000000" transform="translate(207,480)" />
    <path d="M0 0 C2 1 2 1 2 1 Z " fill="#000000" transform="translate(316,471)" />
    <path d="" fill="#000000" transform="translate(0,0)" />
    <path d="M0 0 C2 1 2 1 2 1 Z " fill="#000000" transform="translate(271,457)" />
    <path d="M0 0 C2 1 2 1 2 1 Z " fill="#000000" transform="translate(163,453)" />
    <path d="" fill="#000000" transform="translate(0,0)" />
    <path d="M0 0 C2 1 2 1 2 1 Z " fill="#000000" transform="translate(354,445)" />
    <path d="" fill="#000000" transform="translate(0,0)" />
    <path d="M0 0 C2 1 2 1 2 1 Z " fill="#000000" transform="translate(210,443)" />
    <path d="M0 0 C2 1 2 1 2 1 Z " fill="#000000" transform="translate(297,442)" />
    <path d="" fill="#000000" transform="translate(0,0)" />
    <path d="M0 0 C2 1 2 1 2 1 Z " fill="#000000" transform="translate(362,439)" />
    <path d="M0 0 C2 1 2 1 2 1 Z " fill="#000000" transform="translate(135,436)" />
    <path d="M0 0 C2 1 2 1 2 1 Z " fill="#000000" transform="translate(318,427)" />
    <path d="" fill="#000000" transform="translate(0,0)" />
    <path d="" fill="#000000" transform="translate(0,0)" />
    <path d="M0 0 C2 1 2 1 2 1 Z " fill="#000000" transform="translate(334,417)" />
    <path d="M0 0 C2 1 2 1 2 1 Z " fill="#000000" transform="translate(366,393)" />
    <path d="" fill="#000000" transform="translate(0,0)" />
    <path d="" fill="#000000" transform="translate(0,0)" />
    <path d="M0 0 C2 1 2 1 2 1 Z " fill="#000000" transform="translate(386,346)" />
    <path d="" fill="#000000" transform="translate(0,0)" />
    <path d="" fill="#000000" transform="translate(0,0)" />
    <path d="M0 0 C2 1 2 1 2 1 Z " fill="#000000" transform="translate(50,341)" />
    <path d="" fill="#000000" transform="translate(0,0)" />
    <path d="" fill="#120000" transform="translate(0,0)" />
    <path d="" fill="#000000" transform="translate(0,0)" />
    <path d="" fill="#000000" transform="translate(0,0)" />
    <path d="" fill="#000000" transform="translate(0,0)" />
    <path d="" fill="#000000" transform="translate(0,0)" />
    <path d="" fill="#000000" transform="translate(0,0)" />
    <path d="" fill="#000000" transform="translate(0,0)" />
    <path d="" fill="#000000" transform="translate(0,0)" />
    <path d="" fill="#000000" transform="translate(0,0)" />
    <path d="" fill="#000000" transform="translate(0,0)" />
    <path d="" fill="#000000" transform="translate(0,0)" />
    <path d="M0 0 C2 1 2 1 2 1 Z " fill="#000000" transform="translate(335,294)" />
    <path d="M0 0 C2 1 2 1 2 1 Z " fill="#000000" transform="translate(327,294)" />
    <path d="M0 0 C2 1 2 1 2 1 Z " fill="#000000" transform="translate(247,294)" />
    <path d="M0 0 C2 1 2 1 2 1 Z " fill="#000000" transform="translate(207,294)" />
    <path d="" fill="#000000" transform="translate(0,0)" />
    <path d="M0 0 C2 1 2 1 2 1 Z " fill="#000000" transform="translate(387,280)" />
    <path d="" fill="#000000" transform="translate(0,0)" />
    <path d="M0 0 C2 1 2 1 2 1 Z " fill="#000000" transform="translate(388,274)" />
    <path d="M0 0 C2 1 2 1 2 1 Z " fill="#000000" transform="translate(281,247)" />
    <path d="M0 0 C2 1 2 1 2 1 Z " fill="#000000" transform="translate(273,247)" />
    <path d="M0 0 C2 1 2 1 2 1 Z " fill="#000000" transform="translate(225,247)" />
    <path d="M0 0 C2 1 2 1 2 1 Z " fill="#000000" transform="translate(218,247)" />
    <path d="" fill="#000000" transform="translate(0,0)" />
    <path d="" fill="#000000" transform="translate(0,0)" />
    <path d="" fill="#000000" transform="translate(0,0)" />
    <path d="" fill="#000000" transform="translate(0,0)" />
    <path d="" fill="#000000" transform="translate(0,0)" />
    <path d="M0 0 C2 1 2 1 2 1 Z " fill="#000000" transform="translate(271,156)" />
    <path d="" fill="#000000" transform="translate(0,0)" />
    <path d="" fill="#000000" transform="translate(0,0)" />
    <path d="" fill="#000000" transform="translate(0,0)" />
    <path d="" fill="#000000" transform="translate(0,0)" />
    <path d="" fill="#000000" transform="translate(0,0)" />
    <path d="M0 0 C2 1 2 1 2 1 Z " fill="#000000" transform="translate(335,100)" />
    <path d="M0 0 C2 1 2 1 2 1 Z " fill="#000000" transform="translate(302,100)" />
    <path d="M0 0 C2 1 2 1 2 1 Z " fill="#000000" transform="translate(259,100)" />
    <path d="M0 0 C2 1 2 1 2 1 Z " fill="#000000" transform="translate(247,100)" />
    <path d="M0 0 C2 1 2 1 2 1 Z " fill="#000000" transform="translate(230,100)" />
    <path d="M0 0 C2 1 2 1 2 1 Z " fill="#000000" transform="translate(199,100)" />
    <path d="M0 0 C2 1 2 1 2 1 Z " fill="#000000" transform="translate(167,100)" />
    <path d="M0 0 C2 1 2 1 2 1 Z " fill="#000000" transform="translate(103,100)" />
    <path d="M0 0 C2 1 2 1 2 1 Z " fill="#000000" transform="translate(432,93)" />
    <path d="M0 0 C2 1 2 1 2 1 Z " fill="#000000" transform="translate(424,92)" />
    <path d="M0 0 C2 1 2 1 2 1 Z " fill="#000000" transform="translate(397,88)" />
    <path d="" fill="#000000" transform="translate(0,0)" />
    <path d="M0 0 C2 1 2 1 2 1 Z " fill="#000000" transform="translate(393,87)" />
    <path d="M0 0 C2 1 2 1 2 1 Z " fill="#000000" transform="translate(381,85)" />
    <path d="" fill="#000000" transform="translate(0,0)" />
    <path d="M0 0 C2 1 2 1 2 1 Z " fill="#000000" transform="translate(158,77)" />
    <path d="M0 0 C2 1 2 1 2 1 Z " fill="#000000" transform="translate(330,71)" />
    <path d="M0 0 C2 1 2 1 2 1 Z " fill="#000000" transform="translate(178,71)" />
    <path d="" fill="#000000" transform="translate(0,0)" />
    <path d="M0 0 C2 1 2 1 2 1 Z " fill="#000000" transform="translate(199,64)" />
    <path d="M0 0 C2 1 2 1 2 1 Z " fill="#000000" transform="translate(307,63)" />
    <path d="M0 0 C2 1 2 1 2 1 Z " fill="#000000" transform="translate(62,62)" />
    <path d="M0 0 C2 1 2 1 2 1 Z " fill="#000000" transform="translate(78,60)" />
    <path d="M0 0 C2 1 2 1 2 1 Z " fill="#000000" transform="translate(431,58)" />
    <path d="M0 0 C2 1 2 1 2 1 Z " fill="#000000" transform="translate(408,57)" />
    <path d="M0 0 C2 1 2 1 2 1 Z " fill="#191919" transform="translate(95,57)" />
    <path d="M0 0 C2 1 2 1 2 1 Z " fill="#000000" transform="translate(76,57)" />
    <path d="M0 0 C2 1 2 1 2 1 Z " fill="#000000" transform="translate(285,54)" />
    <path d="M0 0 C2 1 2 1 2 1 Z " fill="#000000" transform="translate(110,54)" />
    <path d="M0 0 C2 1 2 1 2 1 Z " fill="#000000" transform="translate(114,53)" />
    <path d="M0 0 C2 1 2 1 2 1 Z " fill="#000000" transform="translate(124,51)" />
    <path d="" fill="#000000" transform="translate(0,0)" />
    <path d="" fill="#000000" transform="translate(0,0)" />
    <path d="" fill="#000000" transform="translate(0,0)" />
    <path d="" fill="#000000" transform="translate(0,0)" />
    <path d="" fill="#000000" transform="translate(0,0)" />
    <path d="" fill="#000000" transform="translate(0,0)" />
    <path d="" fill="#000000" transform="translate(0,0)" />
    <path d="" fill="#000000" transform="translate(0,0)" />
    <path d="" fill="#000000" transform="translate(0,0)" />
    <path d="" fill="#000000" transform="translate(0,0)" />
    <path d="" fill="#000000" transform="translate(0,0)" />
    <path d="" fill="#000000" transform="translate(0,0)" />
    <path d="" fill="#000000" transform="translate(0,0)" />
    <path d="" fill="#000000" transform="translate(0,0)" />
    <path d="" fill="#000000" transform="translate(0,0)" />
    <path d="" fill="#000000" transform="translate(0,0)" />
    <path d="" fill="#000000" transform="translate(0,0)" />
    <path d="" fill="#000000" transform="translate(0,0)" />
    <path d="" fill="#000000" transform="translate(0,0)" />
    <path d="" fill="#000000" transform="translate(0,0)" />
    <path d="" fill="#000000" transform="translate(0,0)" />
    <path d="" fill="#000000" transform="translate(0,0)" />
    <path d="" fill="#000000" transform="translate(0,0)" />
    <path d="" fill="#000000" transform="translate(0,0)" />
    <path d="" fill="#000000" transform="translate(0,0)" />
    <path d="" fill="#000000" transform="translate(0,0)" />
    <path d="" fill="#000000" transform="translate(0,0)" />
    <path d="" fill="#000000" transform="translate(0,0)" />
    <path d="" fill="#000000" transform="translate(0,0)" />
    <path d="" fill="#000000" transform="translate(0,0)" />
    <path d="" fill="#000000" transform="translate(0,0)" />
    <path d="" fill="#000000" transform="translate(0,0)" />
    <path d="" fill="#000000" transform="translate(0,0)" />
    <path d="" fill="#000000" transform="translate(0,0)" />
    <path d="" fill="#000000" transform="translate(0,0)" />
    <path d="" fill="#000000" transform="translate(0,0)" />
    <path d="" fill="#000000" transform="translate(0,0)" />
    <path d="" fill="#000000" transform="translate(0,0)" />
    <path d="" fill="#000000" transform="translate(0,0)" />
    <path d="" fill="#000000" transform="translate(0,0)" />
    <path d="" fill="#000000" transform="translate(0,0)" />
    <path d="" fill="#000000" transform="translate(0,0)" />
    <path d="" fill="#000000" transform="translate(0,0)" />
    <path d="" fill="#000000" transform="translate(0,0)" />
    <path d="" fill="#000000" transform="translate(0,0)" />
    <path d="" fill="#000000" transform="translate(0,0)" />
    <path d="" fill="#000000" transform="translate(0,0)" />
    <path d="" fill="#000000" transform="translate(0,0)" />
    <path d="" fill="#000000" transform="translate(0,0)" />
    <path d="" fill="#000000" transform="translate(0,0)" />
    <path d="" fill="#000000" transform="translate(0,0)" />
    <path d="" fill="#000000" transform="translate(0,0)" />
    <path d="" fill="#000000" transform="translate(0,0)" />
    <path d="" fill="#000000" transform="translate(0,0)" />
    <path d="" fill="#000000" transform="translate(0,0)" />
    <path d="" fill="#000000" transform="translate(0,0)" />
    <path d="" fill="#000000" transform="translate(0,0)" />
    <path d="" fill="#000000" transform="translate(0,0)" />
    <path d="" fill="#000000" transform="translate(0,0)" />
    <path d="" fill="#000000" transform="translate(0,0)" />
    <path d="" fill="#000000" transform="translate(0,0)" />
    <path d="" fill="#000000" transform="translate(0,0)" />
    <path d="" fill="#000000" transform="translate(0,0)" />
    <path d="" fill="#000000" transform="translate(0,0)" />
    <path d="" fill="#000000" transform="translate(0,0)" />
    <path d="" fill="#000000" transform="translate(0,0)" />
    <path d="" fill="#000000" transform="translate(0,0)" />
    <path d="" fill="#000000" transform="translate(0,0)" />
    <path d="" fill="#000000" transform="translate(0,0)" />
    <path d="" fill="#000000" transform="translate(0,0)" />
    <path d="" fill="#000000" transform="translate(0,0)" />
    <path d="" fill="#000000" transform="translate(0,0)" />
    <path d="" fill="#000000" transform="translate(0,0)" />
    <path d="" fill="#000000" transform="translate(0,0)" />
    <path d="" fill="#000000" transform="translate(0,0)" />
    <path d="" fill="#000000" transform="translate(0,0)" />
    <path d="" fill="#000000" transform="translate(0,0)" />
    <path d="" fill="#000000" transform="translate(0,0)" />
    <path d="" fill="#000000" transform="translate(0,0)" />
    <path d="" fill="#000000" transform="translate(0,0)" />
    <path d="" fill="#000000" transform="translate(0,0)" />
    <path d="" fill="#000000" transform="translate(0,0)" />
    <path d="" fill="#000000" transform="translate(0,0)" />
    <path d="" fill="#000000" transform="translate(0,0)" />
    <path d="" fill="#000000" transform="translate(0,0)" />
    <path d="" fill="#000000" transform="translate(0,0)" />
    <path d="" fill="#000000" transform="translate(0,0)" />
    <path d="" fill="#000000" transform="translate(0,0)" />
    <path d="" fill="#000000" transform="translate(0,0)" />
    <path d="" fill="#000000" transform="translate(0,0)" />
    <path d="" fill="#000000" transform="translate(0,0)" />
    <path d="" fill="#000000" transform="translate(0,0)" />
    <path d="" fill="#000000" transform="translate(0,0)" />
    <path d="" fill="#000000" transform="translate(0,0)" />
    <path d="" fill="#000000" transform="translate(0,0)" />
    <path d="" fill="#000000" transform="translate(0,0)" />
    <path d="" fill="#000000" transform="translate(0,0)" />
    <path d="" fill="#000000" transform="translate(0,0)" />
    <path d="" fill="#000000" transform="translate(0,0)" />
    <path d="" fill="#000000" transform="translate(0,0)" />
    <path d="" fill="#000000" transform="translate(0,0)" />
    <path d="" fill="#000000" transform="translate(0,0)" />
    <path d="" fill="#000000" transform="translate(0,0)" />
    <path d="" fill="#000000" transform="translate(0,0)" />
    <path d="" fill="#000000" transform="translate(0,0)" />
    <path d="" fill="#000000" transform="translate(0,0)" />
    <path d="" fill="#000000" transform="translate(0,0)" />
    <path d="" fill="#000000" transform="translate(0,0)" />
    <path d="" fill="#000000" transform="translate(0,0)" />
    <path d="" fill="#000000" transform="translate(0,0)" />
    <path d="" fill="#000000" transform="translate(0,0)" />
    <path d="" fill="#000000" transform="translate(0,0)" />
    <path d="" fill="#000000" transform="translate(0,0)" />
    <path d="" fill="#000000" transform="translate(0,0)" />
    <path d="" fill="#000000" transform="translate(0,0)" />
    <path d="" fill="#000000" transform="translate(0,0)" />
    <path d="" fill="#000000" transform="translate(0,0)" />
    <path d="" fill="#000000" transform="translate(0,0)" />
    <path d="" fill="#000000" transform="translate(0,0)" />
    <path d="" fill="#000000" transform="translate(0,0)" />
    <path d="" fill="#000000" transform="translate(0,0)" />
    <path d="" fill="#000000" transform="translate(0,0)" />
    <path d="" fill="#000000" transform="translate(0,0)" />
    <path d="" fill="#000000" transform="translate(0,0)" />
    <path d="" fill="#000000" transform="translate(0,0)" />
    <path d="" fill="#000000" transform="translate(0,0)" />
    <path d="" fill="#000000" transform="translate(0,0)" />
    <path d="" fill="#000000" transform="translate(0,0)" />
    <path d="" fill="#000000" transform="translate(0,0)" />
    <path d="" fill="#000000" transform="translate(0,0)" />
    <path d="" fill="#000000" transform="translate(0,0)" />
    <path d="" fill="#000000" transform="translate(0,0)" />
    <path d="" fill="#000000" transform="translate(0,0)" />
    <path d="" fill="#000000" transform="translate(0,0)" />
    <path d="" fill="#000000" transform="translate(0,0)" />
    <path d="" fill="#000000" transform="translate(0,0)" />
    <path d="" fill="#000000" transform="translate(0,0)" />
    <path d="" fill="#000000" transform="translate(0,0)" />
    <path d="" fill="#000000" transform="translate(0,0)" />
    <path d="" fill="#000000" transform="translate(0,0)" />
    <path d="" fill="#000000" transform="translate(0,0)" />
    <path d="" fill="#000000" transform="translate(0,0)" />
    <path d="" fill="#000000" transform="translate(0,0)" />
    <path d="" fill="#000000" transform="translate(0,0)" />
    <path d="" fill="#000000" transform="translate(0,0)" />
    <path d="" fill="#000000" transform="translate(0,0)" />
    <path d="" fill="#000000" transform="translate(0,0)" />
    <path d="" fill="#000000" transform="translate(0,0)" />
    <path d="" fill="#000000" transform="translate(0,0)" />
    <path d="" fill="#000000" transform="translate(0,0)" />
    <path d="" fill="#000000" transform="translate(0,0)" />
    <path d="" fill="#000000" transform="translate(0,0)" />
    <path d="" fill="#000000" transform="translate(0,0)" />
    <path d="" fill="#000000" transform="translate(0,0)" />
    <path d="" fill="#000000" transform="translate(0,0)" />
    <path d="" fill="#000000" transform="translate(0,0)" />
    <path d="" fill="#000000" transform="translate(0,0)" />
    <path d="" fill="#000000" transform="translate(0,0)" />
    <path d="" fill="#000000" transform="translate(0,0)" />
    <path d="" fill="#000000" transform="translate(0,0)" />
    <path d="" fill="#000000" transform="translate(0,0)" />
    <path d="" fill="#000000" transform="translate(0,0)" />
    <path d="" fill="#000000" transform="translate(0,0)" />
    <path d="" fill="#000000" transform="translate(0,0)" />
    <path d="" fill="#000000" transform="translate(0,0)" />
    <path d="" fill="#000000" transform="translate(0,0)" />
    <path d="" fill="#000000" transform="translate(0,0)" />
    <path d="" fill="#000000" transform="translate(0,0)" />
    <path d="" fill="#000000" transform="translate(0,0)" />
    <path d="" fill="#000000" transform="translate(0,0)" />
    <path d="" fill="#000000" transform="translate(0,0)" />
    <path d="" fill="#000000" transform="translate(0,0)" />
    <path d="" fill="#000000" transform="translate(0,0)" />
    <path d="" fill="#000000" transform="translate(0,0)" />
    <path d="" fill="#000000" transform="translate(0,0)" />
    <path d="" fill="#000000" transform="translate(0,0)" />
    <path d="" fill="#000000" transform="translate(0,0)" />
    <path d="" fill="#000000" transform="translate(0,0)" />
    <path d="" fill="#000000" transform="translate(0,0)" />
    <path d="" fill="#000000" transform="translate(0,0)" />
    <path d="" fill="#000000" transform="translate(0,0)" />
    <path d="" fill="#000000" transform="translate(0,0)" />
    <path d="" fill="#000000" transform="translate(0,0)" />
    <path d="" fill="#000000" transform="translate(0,0)" />
    <path d="" fill="#000000" transform="translate(0,0)" />
    <path d="" fill="#000000" transform="translate(0,0)" />
    <path d="" fill="#000000" transform="translate(0,0)" />
    <path d="" fill="#000000" transform="translate(0,0)" />
    <path d="" fill="#000000" transform="translate(0,0)" />
    <path d="" fill="#000000" transform="translate(0,0)" />
    <path d="" fill="#000000" transform="translate(0,0)" />
    <path d="" fill="#000000" transform="translate(0,0)" />
    <path d="" fill="#000000" transform="translate(0,0)" />
    <path d="" fill="#000000" transform="translate(0,0)" />
    <path d="" fill="#000000" transform="translate(0,0)" />
    <path d="" fill="#000000" transform="translate(0,0)" />
    <path d="" fill="#000000" transform="translate(0,0)" />
    <path d="" fill="#000000" transform="translate(0,0)" />
    <path d="" fill="#000000" transform="translate(0,0)" />
    <path d="" fill="#000000" transform="translate(0,0)" />
    <path d="" fill="#000000" transform="translate(0,0)" />
    <path d="" fill="#000000" transform="translate(0,0)" />
    <path d="" fill="#000000" transform="translate(0,0)" />
    <path d="" fill="#000000" transform="translate(0,0)" />
    <path d="" fill="#000000" transform="translate(0,0)" />
    <path d="" fill="#000000" transform="translate(0,0)" />
    <path d="" fill="#000000" transform="translate(0,0)" />
    <path d="" fill="#000000" transform="translate(0,0)" />
    <path d="" fill="#000000" transform="translate(0,0)" />
    <path d="" fill="#000000" transform="translate(0,0)" />
    <path d="" fill="#000000" transform="translate(0,0)" />
    <path d="" fill="#000000" transform="translate(0,0)" />
    <path d="" fill="#000000" transform="translate(0,0)" />
    <path d="" fill="#000000" transform="translate(0,0)" />
    <path d="" fill="#000000" transform="translate(0,0)" />
    <path d="" fill="#000000" transform="translate(0,0)" />
    <path d="" fill="#000000" transform="translate(0,0)" />
    <path d="" fill="#000000" transform="translate(0,0)" />
    <path d="" fill="#000000" transform="translate(0,0)" />
    <path d="" fill="#000000" transform="translate(0,0)" />
    <path d="" fill="#000000" transform="translate(0,0)" />
    <path d="" fill="#000000" transform="translate(0,0)" />
    <path d="" fill="#000000" transform="translate(0,0)" />
    <path d="" fill="#000000" transform="translate(0,0)" />
    <path d="" fill="#000000" transform="translate(0,0)" />
    <path d="" fill="#000000" transform="translate(0,0)" />
    <path d="" fill="#000000" transform="translate(0,0)" />
    <path d="" fill="#000000" transform="translate(0,0)" />
    <path d="" fill="#000000" transform="translate(0,0)" />
    <path d="" fill="#000000" transform="translate(0,0)" />
    <path d="" fill="#000000" transform="translate(0,0)" />
    <path d="" fill="#000000" transform="translate(0,0)" />
    <path d="" fill="#000000" transform="translate(0,0)" />
    <path d="" fill="#000000" transform="translate(0,0)" />
    <path d="" fill="#000000" transform="translate(0,0)" />
    <path d="" fill="#000000" transform="translate(0,0)" />
    <path d="" fill="#000000" transform="translate(0,0)" />
    <path d="" fill="#000000" transform="translate(0,0)" />
    <path d="" fill="#000000" transform="translate(0,0)" />
    <path d="" fill="#000000" transform="translate(0,0)" />
    <path d="" fill="#000000" transform="translate(0,0)" />
    <path d="" fill="#000000" transform="translate(0,0)" />
    <path d="" fill="#000000" transform="translate(0,0)" />
    <path d="" fill="#000000" transform="translate(0,0)" />
    <path d="" fill="#000000" transform="translate(0,0)" />
    <path d="" fill="#000000" transform="translate(0,0)" />
    <path d="" fill="#000000" transform="translate(0,0)" />
    <path d="" fill="#000000" transform="translate(0,0)" />
    <path d="" fill="#000000" transform="translate(0,0)" />
    <path d="" fill="#000000" transform="translate(0,0)" />
    <path d="" fill="#000000" transform="translate(0,0)" />
    <path d="" fill="#000000" transform="translate(0,0)" />
    <path d="" fill="#000000" transform="translate(0,0)" />
    <path d="" fill="#000000" transform="translate(0,0)" />
    <path d="" fill="#000000" transform="translate(0,0)" />
    <path d="" fill="#000000" transform="translate(0,0)" />
    <path d="" fill="#000000" transform="translate(0,0)" />
    <path d="" fill="#000000" transform="translate(0,0)" />
    <path d="" fill="#000000" transform="translate(0,0)" />
    <path d="" fill="#000000" transform="translate(0,0)" />
    <path d="" fill="#000000" transform="translate(0,0)" />
    <path d="" fill="#000000" transform="translate(0,0)" />
    <path d="" fill="#000000" transform="translate(0,0)" />
    <path d="" fill="#000000" transform="translate(0,0)" />
    <path d="" fill="#000000" transform="translate(0,0)" />
    <path d="" fill="#000000" transform="translate(0,0)" />
    <path d="" fill="#000000" transform="translate(0,0)" />
    <path d="" fill="#000000" transform="translate(0,0)" />
    <path d="" fill="#000000" transform="translate(0,0)" />
    <path d="" fill="#000000" transform="translate(0,0)" />
    <path d="" fill="#000000" transform="translate(0,0)" />
    <path d="" fill="#000000" transform="translate(0,0)" />
    <path d="" fill="#000000" transform="translate(0,0)" />
    <path d="" fill="#000000" transform="translate(0,0)" />
    <path d="" fill="#000000" transform="translate(0,0)" />
    <path d="" fill="#000000" transform="translate(0,0)" />
    <path d="" fill="#000000" transform="translate(0,0)" />
    <path d="" fill="#000000" transform="translate(0,0)" />
    <path d="" fill="#000000" transform="translate(0,0)" />
    <path d="" fill="#000000" transform="translate(0,0)" />
    <path d="" fill="#000000" transform="translate(0,0)" />
    <path d="" fill="#000000" transform="translate(0,0)" />
    <path d="" fill="#000000" transform="translate(0,0)" />
    <path d="" fill="#000000" transform="translate(0,0)" />
    <path d="" fill="#000000" transform="translate(0,0)" />
    <path d="" fill="#000000" transform="translate(0,0)" />
    <path d="" fill="#000000" transform="translate(0,0)" />
    <path d="" fill="#000000" transform="translate(0,0)" />
    <path d="" fill="#000000" transform="translate(0,0)" />
    <path d="" fill="#000000" transform="translate(0,0)" />
    <path d="" fill="#000000" transform="translate(0,0)" />
    <path d="" fill="#000000" transform="translate(0,0)" />
    <path d="" fill="#000000" transform="translate(0,0)" />
    <path d="" fill="#000000" transform="translate(0,0)" />
    <path d="" fill="#000000" transform="translate(0,0)" />
    <path d="" fill="#000000" transform="translate(0,0)" />
    <path d="" fill="#000000" transform="translate(0,0)" />
    <path d="" fill="#000000" transform="translate(0,0)" />
    <path d="" fill="#000000" transform="translate(0,0)" />
    <path d="" fill="#000000" transform="translate(0,0)" />
    <path d="" fill="#000000" transform="translate(0,0)" />
    <path d="" fill="#000000" transform="translate(0,0)" />
    <path d="" fill="#000000" transform="translate(0,0)" />
    <path d="" fill="#000000" transform="translate(0,0)" />
    <path d="" fill="#000000" transform="translate(0,0)" />
    <path d="" fill="#000000" transform="translate(0,0)" />
    <path d="" fill="#000000" transform="translate(0,0)" />
    <path d="" fill="#000000" transform="translate(0,0)" />
    <path d="" fill="#000000" transform="translate(0,0)" />
    <path d="" fill="#000000" transform="translate(0,0)" />
    <path d="" fill="#000000" transform="translate(0,0)" />
    <path d="" fill="#000000" transform="translate(0,0)" />
    <path d="" fill="#000000" transform="translate(0,0)" />
    <path d="" fill="#000000" transform="translate(0,0)" />
    <path d="" fill="#000000" transform="translate(0,0)" />
    <path d="" fill="#000000" transform="translate(0,0)" />
    <path d="" fill="#000000" transform="translate(0,0)" />
    <path d="" fill="#000000" transform="translate(0,0)" />
    <path d="" fill="#000000" transform="translate(0,0)" />
    <path d="" fill="#000000" transform="translate(0,0)" />
    <path d="" fill="#000000" transform="translate(0,0)" />
    <path d="" fill="#000000" transform="translate(0,0)" />
    <path d="" fill="#000000" transform="translate(0,0)" />
    <path d="" fill="#000000" transform="translate(0,0)" />
    <path d="" fill="#000000" transform="translate(0,0)" />
    <path d="" fill="#000000" transform="translate(0,0)" />
    <path d="" fill="#000000" transform="translate(0,0)" />
    <path d="" fill="#000000" transform="translate(0,0)" />
    <path d="" fill="#000000" transform="translate(0,0)" />
    <path d="" fill="#000000" transform="translate(0,0)" />
    <path d="" fill="#000000" transform="translate(0,0)" />
    <path d="" fill="#000000" transform="translate(0,0)" />
    <path d="" fill="#000000" transform="translate(0,0)" />
    <path d="" fill="#000000" transform="translate(0,0)" />
    <path d="" fill="#000000" transform="translate(0,0)" />
    <path d="" fill="#000000" transform="translate(0,0)" />
    <path d="" fill="#000000" transform="translate(0,0)" />
    <path d="" fill="#000000" transform="translate(0,0)" />
    <path d="" fill="#000000" transform="translate(0,0)" />
    <path d="" fill="#000000" transform="translate(0,0)" />
    <path d="" fill="#000000" transform="translate(0,0)" />
    <path d="" fill="#000000" transform="translate(0,0)" />
    <path d="" fill="#000000" transform="translate(0,0)" />
    <path d="" fill="#000000" transform="translate(0,0)" />
    <path d="" fill="#000000" transform="translate(0,0)" />
    <path d="" fill="#000000" transform="translate(0,0)" />
    <path d="" fill="#000000" transform="translate(0,0)" />
    <path d="" fill="#000000" transform="translate(0,0)" />
    <path d="" fill="#000000" transform="translate(0,0)" />
    <path d="" fill="#000000" transform="translate(0,0)" />
    <path d="" fill="#000000" transform="translate(0,0)" />
    <path d="" fill="#000000" transform="translate(0,0)" />
    <path d="" fill="#000000" transform="translate(0,0)" />
    <path d="" fill="#000000" transform="translate(0,0)" />
    <path d="" fill="#000000" transform="translate(0,0)" />
    <path d="" fill="#000000" transform="translate(0,0)" />
    <path d="" fill="#000000" transform="translate(0,0)" />
    <path d="" fill="#000000" transform="translate(0,0)" />
    <path d="" fill="#000000" transform="translate(0,0)" />
    <path d="" fill="#000000" transform="translate(0,0)" />
    <path d="" fill="#000000" transform="translate(0,0)" />
    <path d="" fill="#000000" transform="translate(0,0)" />
    <path d="" fill="#000000" transform="translate(0,0)" />
    <path d="" fill="#000000" transform="translate(0,0)" />
    <path d="" fill="#000000" transform="translate(0,0)" />
    <path d="" fill="#000000" transform="translate(0,0)" />
    <path d="" fill="#000000" transform="translate(0,0)" />
    <path d="" fill="#000000" transform="translate(0,0)" />
    <path d="" fill="#000000" transform="translate(0,0)" />
    <path d="" fill="#000000" transform="translate(0,0)" />
    <path d="" fill="#000000" transform="translate(0,0)" />
    <path d="" fill="#000000" transform="translate(0,0)" />
    <path d="" fill="#000000" transform="translate(0,0)" />
    <path d="" fill="#000000" transform="translate(0,0)" />
    <path d="" fill="#000000" transform="translate(0,0)" />
    <path d="" fill="#000000" transform="translate(0,0)" />
    <path d="" fill="#000000" transform="translate(0,0)" />
    <path d="" fill="#000000" transform="translate(0,0)" />
    <path d="" fill="#000000" transform="translate(0,0)" />
    <path d="" fill="#000000" transform="translate(0,0)" />
    <path d="" fill="#000000" transform="translate(0,0)" />
    <path d="" fill="#000000" transform="translate(0,0)" />
    <path d="" fill="#000000" transform="translate(0,0)" />
    <path d="" fill="#000000" transform="translate(0,0)" />
    <path d="" fill="#000000" transform="translate(0,0)" />
    <path d="" fill="#000000" transform="translate(0,0)" />
    <path d="" fill="#000000" transform="translate(0,0)" />
    <path d="" fill="#000000" transform="translate(0,0)" />
    <path d="" fill="#000000" transform="translate(0,0)" />
    <path d="" fill="#000000" transform="translate(0,0)" />
    <path d="" fill="#000000" transform="translate(0,0)" />
    <path d="" fill="#000000" transform="translate(0,0)" />
    <path d="" fill="#000000" transform="translate(0,0)" />
    <path d="" fill="#000000" transform="translate(0,0)" />
    <path d="" fill="#000000" transform="translate(0,0)" />
    <path d="" fill="#000000" transform="translate(0,0)" />
    <path d="" fill="#000000" transform="translate(0,0)" />
    <path d="" fill="#000000" transform="translate(0,0)" />
    <path d="" fill="#000000" transform="translate(0,0)" />
    <path d="" fill="#000000" transform="translate(0,0)" />
    <path d="" fill="#000000" transform="translate(0,0)" />
    <path d="" fill="#000000" transform="translate(0,0)" />
    <path d="" fill="#000000" transform="translate(0,0)" />
    <path d="" fill="#000000" transform="translate(0,0)" />
    <path d="" fill="#000000" transform="translate(0,0)" />
    <path d="" fill="#000000" transform="translate(0,0)" />
    <path d="" fill="#000000" transform="translate(0,0)" />
    <path d="" fill="#000000" transform="translate(0,0)" />
    <path d="" fill="#000000" transform="translate(0,0)" />
    <path d="" fill="#000000" transform="translate(0,0)" />
    <path d="" fill="#000000" transform="translate(0,0)" />
    <path d="" fill="#000000" transform="translate(0,0)" />
    <path d="" fill="#000000" transform="translate(0,0)" />
    <path d="" fill="#000000" transform="translate(0,0)" />
    <path d="" fill="#000000" transform="translate(0,0)" />
    <path d="" fill="#000000" transform="translate(0,0)" />
    <path d="" fill="#000000" transform="translate(0,0)" />
    <path d="" fill="#000000" transform="translate(0,0)" />
    <path d="" fill="#000000" transform="translate(0,0)" />
    <path d="" fill="#000000" transform="translate(0,0)" />
    <path d="" fill="#000000" transform="translate(0,0)" />
    <path d="" fill="#000000" transform="translate(0,0)" />
    <path d="" fill="#000000" transform="translate(0,0)" />
    <path d="" fill="#000000" transform="translate(0,0)" />
    <path d="" fill="#000000" transform="translate(0,0)" />
    <path d="" fill="#000000" transform="translate(0,0)" />
    <path d="" fill="#000000" transform="translate(0,0)" />
    <path d="" fill="#000000" transform="translate(0,0)" />
    <path d="" fill="#000000" transform="translate(0,0)" />
    <path d="" fill="#000000" transform="translate(0,0)" />
    <path d="" fill="#000000" transform="translate(0,0)" />
    <path d="" fill="#000000" transform="translate(0,0)" />
    <path d="" fill="#000000" transform="translate(0,0)" />
    <path d="" fill="#000000" transform="translate(0,0)" />
    <path d="" fill="#000000" transform="translate(0,0)" />
    <path d="" fill="#000000" transform="translate(0,0)" />
    <path d="" fill="#000000" transform="translate(0,0)" />
    <path d="" fill="#000000" transform="translate(0,0)" />
    <path d="" fill="#000000" transform="translate(0,0)" />
    <path d="" fill="#000000" transform="translate(0,0)" />
    <path d="" fill="#000000" transform="translate(0,0)" />
    <path d="" fill="#000000" transform="translate(0,0)" />
    <path d="" fill="#000000" transform="translate(0,0)" />
    <path d="" fill="#000000" transform="translate(0,0)" />
    <path d="" fill="#000000" transform="translate(0,0)" />
    <path d="" fill="#000000" transform="translate(0,0)" />
    <path d="" fill="#000000" transform="translate(0,0)" />
    <path d="" fill="#000000" transform="translate(0,0)" />
    <path d="" fill="#000000" transform="translate(0,0)" />
    <path d="" fill="#000000" transform="translate(0,0)" />
    <path d="" fill="#000000" transform="translate(0,0)" />
    <path d="" fill="#000000" transform="translate(0,0)" />
    <path d="" fill="#000000" transform="translate(0,0)" />
    <path d="" fill="#000000" transform="translate(0,0)" />
    <path d="" fill="#000000" transform="translate(0,0)" />
    <path d="" fill="#000000" transform="translate(0,0)" />
    <path d="" fill="#000000" transform="translate(0,0)" />
    <path d="" fill="#000000" transform="translate(0,0)" />
    <path d="" fill="#000000" transform="translate(0,0)" />
    <path d="" fill="#000000" transform="translate(0,0)" />
    <path d="" fill="#000000" transform="translate(0,0)" />
    <path d="" fill="#000000" transform="translate(0,0)" />
    <path d="" fill="#000000" transform="translate(0,0)" />
    <path d="" fill="#000000" transform="translate(0,0)" />
    <path d="" fill="#000000" transform="translate(0,0)" />
    <path d="" fill="#000000" transform="translate(0,0)" />
    <path d="" fill="#000000" transform="translate(0,0)" />
    <path d="" fill="#000000" transform="translate(0,0)" />
    <path d="" fill="#000000" transform="translate(0,0)" />
    <path d="" fill="#000000" transform="translate(0,0)" />
    <path d="" fill="#000000" transform="translate(0,0)" />
    <path d="" fill="#000000" transform="translate(0,0)" />
    <path d="" fill="#000000" transform="translate(0,0)" />
    <path d="" fill="#000000" transform="translate(0,0)" />
    <path d="" fill="#000000" transform="translate(0,0)" />
    <path d="" fill="#000000" transform="translate(0,0)" />
    <path d="" fill="#000000" transform="translate(0,0)" />
    <path d="" fill="#000000" transform="translate(0,0)" />
    <path d="" fill="#000000" transform="translate(0,0)" />
    <path d="" fill="#000000" transform="translate(0,0)" />
    <path d="" fill="#000000" transform="translate(0,0)" />
    <path d="" fill="#000000" transform="translate(0,0)" />
</svg>